<?xml version="1.0" encoding="UTF-8"?>
<!DOCTYPE svg PUBLIC "-//W3C//DTD SVG 1.1//EN" "http://www.w3.org/Graphics/SVG/1.1/DTD/svg11.dtd">
<!-- Creator: CorelDRAW 2020 (64-Bit) -->
<svg xmlns="http://www.w3.org/2000/svg" xml:space="preserve" width="63.5mm" height="228.6mm" version="1.1" style="shape-rendering:geometricPrecision; text-rendering:geometricPrecision; image-rendering:optimizeQuality; fill-rule:evenodd; clip-rule:evenodd"
viewBox="0 0 6350 22860"
 xmlns:xlink="http://www.w3.org/1999/xlink"
 xmlns:xodm="http://www.corel.com/coreldraw/odm/2003">
 <defs>
  <style type="text/css">
   <![CDATA[
    .fil1 {fill:black}
    .fil0 {fill:#9302C7}
    .fil3 {fill:#C7C7C6}
    .fil2 {fill:white;fill-rule:nonzero}
   ]]>
  </style>
 </defs>
 <g id="Layer_x0020_1">
  <metadata id="CorelCorpID_0Corel-Layer"/>
  <g id="_2116449540976">
   <path class="fil0" d="M24433.77 15368.88c12.67,10.92 23.85,23.97 32.95,38.81 29.01,47.29 30.76,102.91 4.59,145.73 -45.5,74.43 -95.66,145.63 -149.22,213.95 -57.72,73.63 -119.37,143.94 -183.89,211.42 -23.1,24.17 -54.12,37.08 -89.26,37.13l-125.86 0.22c21.11,23.91 40.01,49.73 56.65,77.21 20.85,25.2 39.37,52.36 55.5,81.23 34.17,61.15 58.23,126.15 72.76,192.85 12.98,59.56 20.85,119.84 20.85,179.43l0 17.85c0,73.47 -15.85,144.27 -40.22,210.56 -25.03,68.09 -58.36,132 -99.46,190.35 -41.18,58.44 -90.7,109.95 -148.73,151.56 -61.9,44.38 -133.65,72.08 -214.18,72.21l-1373.12 2.33c-49.67,0.09 -97.33,-25.94 -127.14,-69.43 -7.17,-10.46 -12.96,-21.42 -17.35,-32.64 -9.89,-8.54 -18.88,-18.39 -26.71,-29.4 -21.97,23.34 -44.3,46.35 -67.39,68.58 -34.56,33.26 -64.47,63.41 -119.45,63.5l-1354.26 2.3c-28.58,0.04 -56.52,-8.55 -80.82,-24.23 -20.66,15.65 -46.67,24.44 -75.36,24.49l-516.93 0.88c-4.96,0.01 -9.93,-0.25 -14.91,-0.76 -4.85,0.53 -9.76,0.8 -14.71,0.81l-576.17 0.97c-47.48,0.08 -93.18,-23.68 -123.36,-64.14l-365.77 -490.41 -156.4 473.25c-16.72,50.6 -61.69,82.5 -116.42,82.6l-516.91 0.87c-47.22,0.08 -92.69,-23.42 -122.9,-63.52 -5.91,-7.86 -11.03,-16.06 -15.32,-24.5 -7.14,5.64 -14.42,11.12 -21.85,16.44 -61.89,44.39 -133.64,72.08 -214.18,72.22l-1373.12 2.33c-49.67,0.08 -97.32,-25.95 -127.14,-69.44 -7.17,-10.45 -12.96,-21.41 -17.35,-32.64 -10.59,-9.15 -20.16,-19.81 -28.38,-31.79 -29.82,-43.5 -35.83,-95.75 -16.05,-139.45 17.61,-38.88 40.65,-74.76 63.34,-110.39 29.58,-46.47 60.27,-92.15 91.89,-137.12 29.42,-41.85 59.47,-83.23 90.75,-123.62 12.52,-16.17 25.21,-32.17 39.11,-47.13 28.6,-30.8 60.89,-51.34 106.57,-51.42l145.47 -0.24c-21.07,-22.01 -40.48,-45.68 -58.19,-70.81 -7.29,-10.35 -14.25,-20.87 -20.89,-31.54 -8.62,-10.66 -16.9,-21.63 -24.83,-32.89 -41.93,-59.52 -73.05,-124.56 -93.6,-192.69 -19.88,-65.89 -30.52,-133.07 -30.52,-199.79 0,-74.56 20.11,-146.5 47.43,-212.32 29.2,-70.36 66.53,-136.34 110.55,-197.23 45.05,-62.33 98.46,-117.71 160.44,-163.1 64.55,-47.27 139.69,-78.73 224.55,-78.88l1373.09 -2.33c28.08,-0.04 55.5,8.27 79.37,23.27 20.45,-15.04 45.98,-23.48 74.08,-23.53l516.94 -0.87c47.24,-0.08 92.73,23.44 122.94,63.58 9.15,12.17 16.38,25.16 21.61,38.58 8.79,7.6 16.89,16.25 24.11,25.86 30.22,40.15 39.48,89.35 25.03,133.05l-32.07 97.06 417.76 -332.8c21.87,-17.42 48.2,-26.4 77.57,-26.45l576.17 -0.97c24.23,-0.04 47.95,6.19 69.26,17.46 18.8,-11.37 41.12,-17.65 65.35,-17.69l516.91 -0.88c28.58,-0.05 56.52,8.54 80.82,24.22 20.66,-15.64 46.67,-24.43 75.37,-24.48l1534.65 -2.61c49.65,-0.08 97.29,25.92 127.11,69.38 7.01,10.23 12.71,20.93 17.07,31.89 9.68,-7.94 19.59,-15.64 29.73,-23.06 64.55,-47.28 139.69,-78.74 224.55,-78.88l1373.1 -2.33c52.44,-0.09 102.58,28.99 131.62,76.34 5.11,8.33 9.37,16.91 12.78,25.63zm-2439.64 1077.64l146.77 -0.25c49.64,-0.08 97.27,25.92 127.09,69.37 7.19,10.48 13,21.46 17.4,32.71 4.79,4.14 9.38,8.59 13.72,13.33 3.68,-4.81 7.37,-9.61 11.08,-14.4 12.52,-16.17 25.21,-32.17 39.1,-47.14 28.6,-30.79 60.9,-51.33 106.57,-51.41l145.48 -0.25c-21.07,-22 -40.49,-45.67 -58.19,-70.8 -7.29,-10.35 -14.26,-20.87 -20.9,-31.54 -8.62,-10.66 -16.89,-21.63 -24.83,-32.89 -41.93,-59.52 -73.04,-124.57 -93.59,-192.69 -14.12,-46.78 -23.58,-94.21 -27.88,-141.66 -29.82,21.54 -63.72,36.91 -103.6,37.07 0.52,1 1.04,2 1.54,3.02 26.91,53.93 19.98,114.18 -17.64,153.52l-262.12 274.01zm-3965.33 -235.97l66.2 -201.09c-18.6,10.92 -40.13,16.63 -63.48,16.67l-128.57 0.22c21.11,23.91 40,49.72 56.64,77.19 20.86,25.22 39.39,52.39 55.52,81.27 4.75,8.51 9.31,17.09 13.69,25.74zm1720.74 494.73l283.84 -862.19 -545.74 463 261.9 399.19zm1877.23 -3231.72c25.64,-20.07 52.39,-38.85 80.23,-56.26 99.74,-62.34 212.25,-97.81 335.82,-98.02l1111.98 -1.89c53.67,-0.09 104.9,30.41 133.49,79.46 4.29,7.35 7.92,14.87 10.9,22.49 13.58,11.69 25.43,25.81 34.83,41.94 28.59,49.06 28.26,105.9 -0.85,148.12 -51.75,75.03 -105.7,148.42 -162.31,219.58 -33.14,41.67 -67.98,81.89 -104.37,120.62 9.5,8.03 18.22,17.28 25.92,27.61 8.93,11.99 16.01,24.77 21.15,37.97 8.98,7.76 17.24,16.62 24.57,26.46 30.18,40.48 39.13,90.03 24.16,133.74l-336.56 982.85c-17.09,49.91 -61.76,81.23 -115.98,81.32l-401.16 0.68c-117.54,0.2 -236.37,-10.98 -354.23,-35.07 -118.27,-24.17 -232.86,-67.94 -337.95,-135.74 -93.7,-60.44 -170.05,-139.07 -229.3,-231.84 -27.61,-35.07 -52.36,-72.68 -74.24,-112.55 -11.81,-21.5 -22.3,-43.47 -31.59,-65.8l-164.77 500.49c-16.68,50.67 -61.68,82.64 -116.46,82.73l-651.57 1.1c-63.03,0.11 -121.63,-42.97 -144.48,-102.27 -27.5,-23.64 -47.44,-56.56 -53.72,-93.5l-30.62 -180.05 -96.22 293.67c-16.63,50.76 -61.67,82.81 -116.51,82.9l-516.94 0.88c-28.58,0.05 -56.51,-8.54 -80.8,-24.21 -20.67,15.63 -46.67,24.43 -75.36,24.47l-516.95 0.88c-47.23,0.08 -92.69,-23.42 -122.9,-63.53 -9.17,-12.18 -16.42,-25.19 -21.66,-38.63 -8.77,-7.59 -16.85,-16.22 -24.07,-25.8 -30.21,-40.12 -39.5,-89.28 -25.11,-132.98l233.85 -710.37 -504.24 735.78c-0.99,1.45 -2.02,2.88 -3.08,4.29 -13.09,17.38 -26.71,34.32 -40.43,51.18 -18.24,22.42 -37.11,44.32 -56.47,65.74 -22.63,25.04 -47.25,48.24 -74.2,68.61 -35.55,26.86 -75.91,46.92 -123.64,47l-444.27 0.76c-72.99,0.12 -138.04,-40.91 -179.99,-104.62 -6.02,-9.15 -11.65,-18.51 -16.92,-28.04 -10.5,-11.05 -20.14,-23.24 -28.8,-36.4 -23.96,-36.39 -41.72,-76.08 -55.45,-116.52 -13.15,-38.74 -23.64,-78.09 -31.83,-117.66 -5.88,-28.4 -11.88,-56.8 -18.28,-85.15 -1.01,-4.44 -1.79,-8.87 -2.38,-13.33l-102.86 -786.69 -397.44 1207.28c-16.68,50.67 -61.69,82.64 -116.46,82.74l-516.96 0.87c-47.22,0.08 -92.69,-23.42 -122.89,-63.52 -9.18,-12.18 -16.42,-25.2 -21.66,-38.64 -6.12,-5.29 -11.9,-11.09 -17.28,-17.36 -27.51,31.84 -56.16,62.81 -87.85,90.38 -22.41,19.5 -50.26,29.65 -81.47,29.71l-1181.98 2c-47.22,0.08 -92.69,-23.42 -122.9,-63.53 -9.17,-12.18 -16.42,-25.19 -21.65,-38.63 -8.78,-7.59 -16.86,-16.22 -24.07,-25.8 -30.22,-40.12 -39.51,-89.28 -25.12,-132.98l519.64 -1578.48c16.68,-50.67 61.69,-82.64 116.47,-82.73l514.24 -0.88c47.23,-0.07 92.7,23.43 122.91,63.55 9.16,12.17 16.41,25.18 21.64,38.62 8.78,7.59 16.87,16.23 24.08,25.81 30.22,40.13 39.5,89.3 25.1,133l-301.54 914.97 573.6 -0.97c17.9,-0.03 35.97,3.5 53.14,10.23l363.5 -1104.16c16.68,-50.68 61.68,-82.64 116.46,-82.74l516.95 -0.88c23.11,-0.03 45.8,5.57 66.48,16.01 18.39,-10.6 39.7,-16.18 62.76,-16.22l468.48 -0.8c63.23,-0.1 121.73,43.32 144.5,102.36 29.24,25.17 49.9,60.76 54.7,100.24l69.18 568.78 506.09 -721.94c22.85,-32.6 58.9,-50.85 100.57,-50.92l554.62 -0.94c23.14,-0.04 45.83,5.6 66.45,15.98 18.25,-10.43 39.66,-16.16 62.8,-16.2l516.94 -0.88c28.58,-0.05 56.51,8.54 80.8,24.22 20.67,-15.64 46.67,-24.44 75.36,-24.48l651.57 -1.11c63.02,-0.1 121.62,42.96 144.47,102.28 27.4,23.54 47.29,56.29 53.66,93.06l32.59 188.32 99.8 -301.84c16.73,-50.58 61.7,-82.48 116.41,-82.58l511.58 -0.87c47.22,-0.07 92.68,23.43 122.89,63.53 9.18,12.18 16.42,25.2 21.66,38.64 8.77,7.59 16.85,16.21 24.07,25.79 6.1,8.11 11.36,16.58 15.73,25.31z"/>
   <path class="fil1" d="M19778.34 16904.42l497.91 -1512.48c6.34,-19.27 22.84,-30.98 43.67,-31.02l516.91 -0.88c18.05,-0.03 34.54,8.49 46.09,23.82 11.54,15.34 14.91,33.17 9.42,49.87l-519.6 1578.44c-6.35,19.27 -22.84,30.99 -43.68,31.03l-516.93 0.87c-5.17,0.01 -10.22,-0.68 -15.05,-2.04 -4.53,1.37 -9.41,2.08 -14.57,2.09l-576.17 0.98c-18.15,0.03 -34.72,-8.59 -46.26,-24.05l-466.97 -626.11 -205.06 620.48c-6.36,19.24 -22.84,30.94 -43.66,30.97l-516.91 0.88c-18.05,0.03 -34.54,-8.49 -46.08,-23.82 -11.55,-15.33 -14.92,-33.17 -9.43,-49.87l519.61 -1578.44c6.34,-19.27 22.84,-30.99 43.67,-31.02l516.94 -0.88c18.06,-0.03 34.55,8.5 46.1,23.85 11.55,15.34 14.9,33.19 9.38,49.89l-175.38 530.74 747.76 -595.68c8.42,-6.71 17.78,-9.9 29.09,-9.91l576.17 -0.98c22.56,-0.04 43.32,13.87 52.99,35.51 9.67,21.64 5.35,44.53 -11.02,58.42l-899.27 762.95 450.33 686.39zm-4589.58 -2310.48l773.66 -1.31c12.21,-0.02 24.53,4.32 34.78,12.27 25.06,19.44 28.52,48.93 16.81,71.65 -2.11,4.1 -4.5,8.09 -6.9,12.02 -8.15,13.34 -16.85,26.43 -25.49,39.43 -27.31,41.1 -56.64,80.94 -86.49,120.07 -35.23,46.19 -71.64,91.43 -109.03,135.8 -30.45,36.11 -63.37,73.72 -99,104.71 -8.62,7.5 -18.54,11.12 -30.55,11.14l-1181.98 2c-18.05,0.04 -34.54,-8.48 -46.08,-23.82 -11.55,-15.33 -14.92,-33.16 -9.43,-49.87l519.65 -1578.48c6.35,-19.27 22.84,-30.99 43.67,-31.02l514.25 -0.87c18.05,-0.03 34.54,8.49 46.09,23.83 11.55,15.33 14.91,33.17 9.41,49.87l-363.37 1102.58zm743.44 431.53l519.64 -1578.48c6.35,-19.27 22.84,-30.99 43.68,-31.03l516.95 -0.87c18.05,-0.03 34.54,8.49 46.09,23.82 11.55,15.33 14.91,33.17 9.42,49.87l-519.65 1578.48c-6.34,19.27 -22.84,30.99 -43.67,31.02l-516.96 0.88c-18.05,0.03 -34.53,-8.49 -46.08,-23.82 -11.55,-15.33 -14.92,-33.17 -9.42,-49.87zm1847.3 -640.84l668.01 -952.95c8.76,-12.48 21.75,-19.06 37.72,-19.09l554.62 -0.94c20.4,-0.04 39.13,11.1 50.02,29.73 10.89,18.64 10.82,39.42 -0.21,55.5l-955.8 1394.68c-0.39,0.58 -0.73,1.06 -1.15,1.61 -12.52,16.62 -25.6,32.88 -38.72,49 -17.44,21.43 -35.48,42.37 -53.99,62.85 -19.52,21.59 -40.76,41.7 -64.01,59.27 -21.46,16.22 -47.68,31.58 -76.65,31.63l-444.26 0.75c-41.35,0.07 -75.85,-23.77 -99.46,-59.64 -19.18,-29.12 -33.37,-61.54 -44.35,-93.89 -11.9,-35.04 -21.36,-70.63 -28.77,-106.42 -5.99,-28.95 -12.11,-57.9 -18.64,-86.79 -0.39,-1.75 -0.66,-3.24 -0.89,-5l-166.92 -1276.68c-1.91,-14.58 1.64,-27.23 10.55,-37.65 8.91,-10.42 20.71,-15.71 35.11,-15.73l468.48 -0.8c28.31,-0.05 54.06,23.14 57.55,51.81l111.76 918.75zm826.28 636.31l519.65 -1578.49c6.34,-19.27 22.84,-30.99 43.67,-31.02l516.94 -0.88c18.05,-0.03 34.53,8.49 46.08,23.82 11.55,15.34 14.92,33.17 9.42,49.87l-519.62 1578.48c-6.35,19.28 -22.84,30.99 -43.67,31.03l-516.96 0.87c-18.05,0.04 -34.54,-8.48 -46.09,-23.82 -11.54,-15.33 -14.91,-33.16 -9.42,-49.86zm2061.92 -887.91l229.35 -693.64c6.36,-19.24 22.84,-30.93 43.65,-30.96l511.58 -0.87c18.05,-0.03 34.53,8.49 46.08,23.82 11.55,15.33 14.92,33.17 9.42,49.87l-519.64 1578.48c-6.35,19.27 -22.84,30.99 -43.68,31.02l-651.57 1.11c-27.42,0.04 -52.46,-21.52 -57.18,-49.25l-114.26 -672.11 -226.42 691.02c-6.32,19.3 -22.83,31.05 -43.69,31.09l-516.93 0.87c-18.06,0.04 -34.54,-8.49 -46.09,-23.82 -11.55,-15.33 -14.92,-33.17 -9.42,-49.86l519.62 -1578.49c6.35,-19.27 22.84,-30.99 43.68,-31.02l651.57 -1.11c27.37,-0.04 52.36,21.43 57.15,49.09l116.78 674.76zm1260.51 36.84c-8.9,32.04 -19.51,73.65 -19.51,107.86 0,33.64 8.62,67.61 21.55,99.94 14.66,36.65 34.2,71.17 58.86,102.8 22.72,29.13 48.85,55.5 78.85,76.96 19.84,14.19 42.06,24.78 65.5,24.74l125.09 -0.22 28.4 -88.8 -225.13 0.39c-15.26,0.02 -29.08,-5.92 -40.55,-17.44 -11.46,-11.52 -17.39,-25.42 -17.39,-40.79l0 -2.97c0,-5.16 0.63,-9.5 2.07,-14.3 6.03,-20.02 27.67,-51.75 38.77,-69.36 24.03,-38.15 49.41,-75.44 75.34,-112.2 29.56,-41.92 60.03,-83.15 91.3,-123.71 27.17,-35.25 57.23,-71.03 90.77,-100.23 8.62,-7.51 18.55,-11.13 30.57,-11.15l646.18 -1.1c18.16,-0.03 34.74,8.6 46.27,24.07 11.54,15.47 14.78,33.45 9.06,50.15l-336.56 982.85c-6.5,18.99 -22.86,30.46 -43.49,30.49l-401.15 0.68c-111.68,0.19 -224.49,-10.38 -336.46,-33.26 -106.83,-21.83 -210.18,-60.98 -305.12,-122.23 -95.25,-61.45 -169.26,-144.16 -223.72,-243.37 -64.78,-117.99 -83.85,-254.77 -83.85,-381.17 0,-108.94 23.03,-213.77 59.58,-311.94 39.12,-105.09 92.61,-201.9 160.06,-289 65.69,-84.82 143.78,-157.67 234.98,-214.67 87.61,-54.76 185.77,-86.17 294.2,-86.35l1111.98 -1.89c20.43,-0.03 39.18,11.13 50.06,29.8 10.88,18.67 10.76,39.48 -0.32,55.54 -50.78,73.65 -103.75,145.69 -159.3,215.54 -54.72,68.78 -114.21,133.45 -177.83,193.82 -8.77,8.33 -19.24,12.39 -31.95,12.42l-700.02 1.18c-21.63,0.04 -41.09,7.5 -58.41,18.38 -24.33,15.29 -45.22,35.2 -63.18,57.48 -21.45,26.58 -39.85,55.68 -55.66,86.3 -15.63,30.28 -29.29,61.88 -39.84,94.76zm-4558.18 2286.01l-516.82 0.88c-61.89,0.1 -121.82,-16.17 -176.48,-52.59 -50.3,-33.5 -92.95,-76.08 -127.87,-125.65 -35.79,-50.8 -62.15,-106.12 -79.69,-164.27 -17.28,-57.29 -26.58,-115.49 -26.58,-173.5 0,-63.02 18.26,-125.47 41.33,-181.05 26.96,-64.97 61.39,-125.75 102.03,-181.97 40.58,-56.14 88.49,-105.98 144.31,-146.87 51.2,-37.49 110.97,-64.04 178.45,-64.16l1373.09 -2.32c19.98,-0.04 38.3,10.59 49.36,28.62 11.07,18.04 11.7,38.33 1.72,54.65 -43.99,71.97 -92.53,140.83 -144.31,206.88 -56.22,71.73 -116.32,140.24 -179.17,205.98 -8.87,9.29 -19.97,13.9 -33.47,13.92l-885.53 1.51c-4.64,3.86 -10.58,14.96 -12.7,19.35 -4.95,10.27 -14.15,30.59 -16.35,44.76 3.78,3.77 7.51,7.61 11.07,11.55 2.79,3.09 10.14,7.13 13.7,8.96 2.52,1.3 5.25,2.74 7.97,4.1l501.14 -0.85c64.05,-0.11 126.7,16.45 181.76,57.37 48.99,36.41 88.25,82.1 117.9,135.2 29.35,52.54 50.36,108.12 63.78,165.31 12.52,53.34 20.3,107.68 20.3,161.16l0 17.85c0,63.44 -14.23,125.04 -35.27,182.26 -22.76,61.9 -52.95,119.82 -90.31,172.85 -36.46,51.74 -80.1,97.32 -131.49,134.17 -48.78,34.98 -105.07,57.82 -168.67,57.92l-1373.11 2.33c-18.96,0.03 -36.3,-9.44 -47.68,-26.04 -11.38,-16.59 -13.57,-35.62 -6.02,-52.29 15.58,-34.39 38.15,-69.41 58.25,-100.99 28.97,-45.51 59.03,-90.25 89.99,-134.29 28.76,-40.9 58.16,-81.4 88.73,-120.87 11.09,-14.31 22.55,-28.87 34.85,-42.12 13.44,-14.46 27.95,-27.4 50.06,-27.43l915.42 -1.56c1.05,0 2.61,-0.03 4.19,-0.14 2.41,-11.97 3.53,-24.3 3.53,-36.8l0 -35.73c0,-5.36 -0.5,-10.74 -1.41,-16.09zm4050.65 -590.26l-64.71 197.15 87.84 -94.19c8.9,-9.54 20.15,-14.3 33.85,-14.32l621.93 -1.06c21.72,-0.03 41.7,12.75 51.91,33.23 10.22,20.48 7.67,42.63 -6.61,57.57l-385.01 402.49c-8.88,9.28 -19.97,13.89 -33.47,13.92l-502.37 0.85 -24.49 73.89 951.2 -1.61c18.95,-0.04 36.29,9.43 47.67,26.01 11.38,16.58 13.58,35.59 6.06,52.27 -4.39,9.7 -10.03,19.44 -15.18,28.71 -7.16,12.88 -14.12,25.88 -20.89,38.99 -7.24,14.04 -14.87,27.84 -22.98,41.32 -4.65,7.72 -10.11,17.33 -15.97,24.68 -20.57,30.13 -44.17,58.66 -68.08,85.98 -27.21,31.1 -54.86,61.81 -83.07,91.98 -23.75,25.42 -47.93,50.58 -72.99,74.7 -17.14,16.49 -39.19,42.41 -65.82,42.45l-1354.26 2.3c-18.05,0.03 -34.53,-8.49 -46.08,-23.82 -11.55,-15.33 -14.92,-33.17 -9.42,-49.87l519.6 -1578.44c6.35,-19.27 22.84,-30.99 43.67,-31.02l1534.66 -2.6c18.95,-0.04 36.29,9.43 47.67,26.01 11.38,16.59 13.58,35.6 6.05,52.27 -18.04,39.94 -42.84,78.99 -66.79,115.13 -30.53,46.06 -62.55,91.04 -95.89,134.93 -31.22,41.1 -64.48,80.93 -100.66,117.58 -24.95,25.28 -62.3,61.11 -101.63,61.17l-795.74 1.35zm1966.78 580.06l-516.82 0.87c-61.9,0.11 -121.82,-16.17 -176.49,-52.58 -50.29,-33.51 -92.94,-76.08 -127.87,-125.66 -35.78,-50.79 -62.14,-106.11 -79.68,-164.27 -17.29,-57.29 -26.59,-115.48 -26.59,-173.5 0,-63.02 18.27,-125.47 41.33,-181.05 26.97,-64.96 61.4,-125.74 102.04,-181.97 40.58,-56.13 88.48,-105.98 144.31,-146.86 51.2,-37.49 110.96,-64.05 178.44,-64.16l1373.1 -2.33c19.97,-0.03 38.3,10.6 49.36,28.63 11.06,18.04 11.7,38.32 1.72,54.65 -43.99,71.96 -92.53,140.82 -144.31,206.88 -56.22,71.72 -116.32,140.24 -179.17,205.98 -8.88,9.28 -19.97,13.9 -33.47,13.92l-885.53 1.5c-4.65,3.86 -10.59,14.97 -12.7,19.35 -4.95,10.27 -14.15,30.59 -16.36,44.77 3.79,3.77 7.52,7.61 11.08,11.55 2.79,3.08 10.14,7.13 13.7,8.96 2.52,1.29 5.24,2.74 7.97,4.1l501.14 -0.85c64.7,-0.11 128.65,15.9 184.44,57.36 49.01,36.41 88.26,82.08 117.92,135.19 29.48,52.76 50.08,108.65 62.62,166.2 11.57,53.13 18.76,107.12 18.76,160.29l0 17.85c0,63.44 -14.24,125.03 -35.28,182.25 -22.75,61.9 -52.95,119.82 -90.31,172.85 -36.46,51.75 -80.09,97.33 -131.48,134.17 -48.79,34.99 -105.07,57.82 -168.67,57.93l-1373.12 2.33c-18.95,0.03 -36.3,-9.44 -47.68,-26.04 -11.37,-16.6 -13.56,-35.62 -6.02,-52.29 15.58,-34.4 38.15,-69.42 58.26,-101 28.97,-45.5 59.02,-90.24 89.99,-134.28 28.76,-40.91 58.15,-81.4 88.72,-120.87 11.09,-14.32 22.56,-28.88 34.86,-42.12 13.43,-14.47 27.95,-27.4 50.05,-27.44l915.42 -1.55c1.06,0 2.61,-0.03 4.19,-0.14 2.41,-11.98 3.53,-24.3 3.53,-36.81l0 -35.72c0,-5.37 -0.49,-10.74 -1.4,-16.09z"/>
   <path class="fil1" d="M19824.06 16968.86l497.91 -1512.48c6.35,-19.27 22.84,-30.99 43.68,-31.03l516.91 -0.87c18.05,-0.03 34.53,8.49 46.08,23.82 11.55,15.33 14.92,33.17 9.42,49.86l-519.6 1578.44c-6.34,19.28 -22.84,30.99 -43.67,31.03l-516.93 0.88c-5.18,0 -10.22,-0.69 -15.05,-2.04 -4.53,1.37 -9.41,2.08 -14.57,2.09l-576.17 0.97c-18.15,0.03 -34.73,-8.59 -46.26,-24.05l-466.98 -626.1 -205.05 620.47c-6.36,19.25 -22.84,30.94 -43.66,30.97l-516.91 0.88c-18.05,0.03 -34.54,-8.49 -46.09,-23.82 -11.54,-15.33 -14.91,-33.17 -9.42,-49.87l519.61 -1578.44c6.34,-19.27 22.84,-30.99 43.67,-31.02l516.93 -0.88c18.07,-0.03 34.56,8.5 46.11,23.85 11.54,15.34 14.9,33.19 9.38,49.89l-175.38 530.74 747.76 -595.67c8.42,-6.71 17.77,-9.9 29.08,-9.92l576.17 -0.98c22.57,-0.04 43.33,13.88 53,35.52 9.66,21.64 5.35,44.52 -11.03,58.41l-899.27 762.95 450.33 686.4zm-4589.57 -2310.48l773.66 -1.32c12.2,-0.02 24.53,4.32 34.78,12.27 25.06,19.44 28.52,48.93 16.81,71.65 -2.12,4.11 -4.5,8.1 -6.9,12.02 -8.15,13.34 -16.85,26.43 -25.49,39.43 -27.31,41.1 -56.65,80.94 -86.49,120.07 -35.24,46.2 -71.64,91.44 -109.04,135.8 -30.44,36.11 -63.37,73.72 -98.99,104.72 -8.63,7.5 -18.54,11.11 -30.55,11.13l-1181.98 2.01c-18.05,0.03 -34.54,-8.49 -46.09,-23.82 -11.54,-15.33 -14.91,-33.17 -9.42,-49.87l519.65 -1578.48c6.34,-19.28 22.84,-30.99 43.67,-31.03l514.25 -0.87c18.05,-0.03 34.54,8.49 46.09,23.83 11.54,15.33 14.91,33.17 9.41,49.87l-363.37 1102.59zm743.44 431.52l519.64 -1578.48c6.35,-19.27 22.84,-30.99 43.68,-31.02l516.95 -0.88c18.05,-0.03 34.54,8.49 46.08,23.82 11.55,15.33 14.92,33.17 9.43,49.87l-519.65 1578.48c-6.34,19.27 -22.84,30.99 -43.67,31.02l-516.96 0.88c-18.05,0.03 -34.54,-8.49 -46.08,-23.82 -11.55,-15.33 -14.92,-33.17 -9.42,-49.87zm1847.29 -640.83l668.02 -952.95c8.75,-12.49 21.75,-19.07 37.71,-19.1l554.63 -0.94c20.4,-0.03 39.13,11.1 50.02,29.74 10.89,18.63 10.81,39.41 -0.21,55.49l-955.8 1394.68c-0.39,0.58 -0.74,1.06 -1.15,1.61 -12.52,16.63 -25.6,32.88 -38.72,49 -17.45,21.44 -35.49,42.37 -54,62.85 -19.51,21.6 -40.75,41.71 -64,59.28 -21.46,16.21 -47.69,31.57 -76.65,31.62l-444.27 0.75c-41.34,0.07 -75.84,-23.76 -99.46,-59.63 -19.17,-29.13 -33.36,-61.54 -44.35,-93.9 -11.89,-35.03 -21.35,-70.63 -28.76,-106.42 -5.99,-28.94 -12.12,-57.9 -18.64,-86.79 -0.4,-1.74 -0.66,-3.24 -0.89,-5l-166.93 -1276.67c-1.9,-14.58 1.64,-27.24 10.56,-37.66 8.91,-10.42 20.71,-15.7 35.1,-15.73l468.49 -0.79c28.31,-0.05 54.06,23.13 57.55,51.81l111.75 918.75zm826.29 636.3l519.65 -1578.48c6.34,-19.28 22.84,-30.99 43.67,-31.03l516.93 -0.87c18.06,-0.04 34.54,8.49 46.09,23.82 11.55,15.33 14.92,33.17 9.42,49.86l-519.62 1578.49c-6.35,19.27 -22.84,30.99 -43.68,31.02l-516.95 0.88c-18.06,0.03 -34.54,-8.49 -46.09,-23.82 -11.55,-15.33 -14.92,-33.17 -9.42,-49.87zm2061.91 -887.91l229.36 -693.63c6.36,-19.24 22.84,-30.94 43.65,-30.97l511.57 -0.87c18.06,-0.03 34.54,8.49 46.09,23.82 11.55,15.33 14.92,33.17 9.42,49.87l-519.64 1578.48c-6.35,19.27 -22.85,30.99 -43.68,31.03l-651.57 1.1c-27.42,0.05 -52.46,-21.52 -57.18,-49.25l-114.26 -672.11 -226.42 691.02c-6.33,19.31 -22.84,31.05 -43.69,31.09l-516.94 0.88c-18.05,0.03 -34.53,-8.49 -46.08,-23.82 -11.55,-15.34 -14.92,-33.17 -9.42,-49.87l519.62 -1578.48c6.35,-19.28 22.84,-30.99 43.68,-31.03l651.56 -1.1c27.37,-0.05 52.37,21.42 57.16,49.09l116.77 674.75zm1260.52 36.84c-8.9,32.05 -19.51,73.65 -19.51,107.86 0,33.64 8.61,67.61 21.55,99.94 14.65,36.66 34.2,71.18 58.86,102.8 22.72,29.14 48.85,55.5 78.85,76.97 19.84,14.18 42.06,24.77 65.5,24.73l125.08 -0.21 28.41 -88.8 -225.13 0.38c-15.27,0.02 -29.08,-5.92 -40.55,-17.44 -11.47,-11.52 -17.39,-25.42 -17.39,-40.78l0 -2.97c0,-5.17 0.63,-9.51 2.07,-14.31 6.03,-20.02 27.67,-51.75 38.76,-69.36 24.04,-38.15 49.42,-75.43 75.35,-112.2 29.56,-41.92 60.02,-83.14 91.29,-123.71 27.18,-35.25 57.24,-71.02 90.78,-100.23 8.62,-7.51 18.54,-11.13 30.56,-11.15l646.19 -1.09c18.15,-0.04 34.74,8.59 46.27,24.06 11.53,15.48 14.78,33.45 9.06,50.16l-336.56 982.84c-6.5,18.99 -22.86,30.46 -43.49,30.5l-401.16 0.68c-111.67,0.19 -224.49,-10.38 -336.46,-33.27 -106.82,-21.83 -210.17,-60.98 -305.11,-122.23 -95.26,-61.44 -169.26,-144.16 -223.72,-243.36 -64.78,-118 -83.85,-254.77 -83.85,-381.17 0,-108.94 23.03,-213.78 59.58,-311.94 39.12,-105.1 92.61,-201.91 160.06,-289.01 65.68,-84.81 143.78,-157.67 234.98,-214.67 87.6,-54.76 185.76,-86.16 294.2,-86.35l1111.98 -1.88c20.43,-0.04 39.18,11.12 50.06,29.79 10.88,18.68 10.76,39.48 -0.32,55.55 -50.79,73.64 -103.75,145.68 -159.31,215.53 -54.71,68.78 -114.2,133.45 -177.82,193.82 -8.77,8.33 -19.24,12.4 -31.96,12.42l-700.02 1.19c-21.63,0.03 -41.08,7.49 -58.41,18.38 -24.32,15.29 -45.21,35.2 -63.18,57.47 -21.44,26.58 -39.84,55.68 -55.65,86.3 -15.63,30.28 -29.3,61.88 -39.84,94.76zm-4558.18 2286.01l-516.82 0.88c-61.9,0.1 -121.82,-16.17 -176.48,-52.58 -50.3,-33.51 -92.95,-76.08 -127.87,-125.66 -35.79,-50.8 -62.15,-106.12 -79.69,-164.27 -17.29,-57.29 -26.58,-115.48 -26.58,-173.5 0,-63.02 18.26,-125.47 41.33,-181.05 26.96,-64.97 61.39,-125.74 102.03,-181.97 40.58,-56.14 88.48,-105.98 144.31,-146.86 51.2,-37.5 110.96,-64.05 178.45,-64.16l1373.09 -2.33c19.97,-0.04 38.3,10.59 49.36,28.63 11.06,18.03 11.7,38.32 1.72,54.65 -43.99,71.96 -92.53,140.82 -144.31,206.87 -56.22,71.73 -116.32,140.24 -179.17,205.98 -8.88,9.29 -19.97,13.9 -33.47,13.93l-885.53 1.5c-4.64,3.86 -10.59,14.96 -12.7,19.35 -4.95,10.27 -14.15,30.59 -16.35,44.77 3.78,3.77 7.5,7.61 11.06,11.54 2.8,3.09 10.15,7.13 13.71,8.97 2.52,1.29 5.24,2.74 7.97,4.09l501.14 -0.85c64.05,-0.11 126.7,16.45 181.75,57.37 48.99,36.42 88.26,82.1 117.91,135.2 29.35,52.55 50.35,108.12 63.78,165.32 12.51,53.33 20.3,107.67 20.3,161.15l0 17.86c0,63.44 -14.24,125.03 -35.27,182.25 -22.76,61.9 -52.95,119.82 -90.31,172.85 -36.46,51.75 -80.1,97.32 -131.49,134.17 -48.79,34.98 -105.07,57.82 -168.67,57.93l-1373.11 2.32c-18.96,0.04 -36.31,-9.44 -47.68,-26.03 -11.38,-16.6 -13.57,-35.63 -6.02,-52.3 15.57,-34.39 38.14,-69.41 58.25,-100.99 28.97,-45.51 59.03,-90.25 89.99,-134.29 28.76,-40.9 58.15,-81.39 88.72,-120.86 11.09,-14.32 22.56,-28.88 34.86,-42.13 13.43,-14.46 27.95,-27.39 50.06,-27.43l915.41 -1.55c1.06,-0.01 2.62,-0.03 4.2,-0.14 2.41,-11.98 3.53,-24.31 3.53,-36.81l0 -35.72c0,-5.37 -0.5,-10.74 -1.41,-16.1zm4050.64 -590.25l-64.7 197.15 87.84 -94.2c8.9,-9.53 20.15,-14.3 33.85,-14.32l621.93 -1.05c21.72,-0.04 41.69,12.74 51.91,33.23 10.22,20.48 7.67,42.63 -6.62,57.57l-385.01 402.49c-8.87,9.28 -19.96,13.89 -33.46,13.91l-502.38 0.85 -24.48 73.89 951.2 -1.61c18.95,-0.03 36.28,9.43 47.66,26.01 11.38,16.58 13.59,35.6 6.06,52.27 -4.38,9.7 -10.02,19.45 -15.17,28.71 -7.16,12.88 -14.12,25.88 -20.89,39 -7.24,14.03 -14.87,27.83 -22.99,41.31 -4.65,7.72 -10.11,17.33 -15.97,24.68 -20.56,30.13 -44.16,58.67 -68.07,85.98 -27.22,31.1 -54.86,61.81 -83.07,91.98 -23.76,25.42 -47.93,50.58 -73,74.7 -17.13,16.5 -39.19,42.41 -65.81,42.46l-1354.26 2.29c-18.05,0.03 -34.54,-8.49 -46.08,-23.82 -11.55,-15.33 -14.92,-33.17 -9.43,-49.87l519.61 -1578.43c6.34,-19.28 22.84,-30.99 43.67,-31.03l1534.66 -2.6c18.94,-0.03 36.28,9.43 47.66,26.02 11.38,16.58 13.58,35.6 6.06,52.27 -18.04,39.93 -42.84,78.98 -66.79,115.12 -30.53,46.07 -62.55,91.04 -95.89,134.93 -31.22,41.1 -64.48,80.94 -100.66,117.58 -24.95,25.28 -62.3,61.11 -101.63,61.18l-795.75 1.35zm1966.79 580.05l-516.82 0.87c-61.9,0.11 -121.82,-16.16 -176.49,-52.58 -50.3,-33.51 -92.94,-76.08 -127.87,-125.65 -35.79,-50.8 -62.14,-106.12 -79.69,-164.28 -17.28,-57.29 -26.58,-115.48 -26.58,-173.49 0,-63.03 18.26,-125.47 41.33,-181.05 26.96,-64.97 61.4,-125.75 102.04,-181.97 40.58,-56.14 88.48,-105.99 144.31,-146.87 51.2,-37.49 110.96,-64.04 178.44,-64.16l1373.1 -2.32c19.97,-0.04 38.29,10.59 49.36,28.62 11.06,18.04 11.7,38.32 1.72,54.65 -43.99,71.97 -92.53,140.82 -144.31,206.88 -56.23,71.72 -116.33,140.24 -179.17,205.98 -8.88,9.29 -19.97,13.9 -33.47,13.92l-885.53 1.5c-4.65,3.86 -10.59,14.97 -12.71,19.36 -4.94,10.26 -14.15,30.58 -16.35,44.76 3.79,3.77 7.51,7.61 11.07,11.55 2.79,3.09 10.15,7.13 13.71,8.96 2.52,1.3 5.24,2.74 7.96,4.1l501.15 -0.85c64.7,-0.11 128.65,15.91 184.44,57.36 49,36.42 88.25,82.09 117.92,135.19 29.48,52.77 50.08,108.65 62.61,166.2 11.58,53.13 18.77,107.13 18.77,160.29l0 17.85c0,63.44 -14.24,125.04 -35.28,182.26 -22.76,61.9 -52.95,119.82 -90.31,172.84 -36.46,51.75 -80.1,97.33 -131.48,134.18 -48.79,34.98 -105.07,57.81 -168.67,57.92l-1373.12 2.33c-18.95,0.03 -36.3,-9.44 -47.68,-26.04 -11.38,-16.59 -13.57,-35.62 -6.02,-52.29 15.58,-34.4 38.15,-69.41 58.25,-100.99 28.97,-45.51 59.03,-90.25 89.99,-134.29 28.76,-40.9 58.16,-81.4 88.73,-120.87 11.09,-14.31 22.56,-28.87 34.86,-42.12 13.43,-14.46 27.95,-27.4 50.05,-27.44l915.42 -1.55c1.06,0 2.61,-0.03 4.19,-0.14 2.41,-11.97 3.53,-24.3 3.53,-36.8l0 -35.73c0,-5.37 -0.49,-10.74 -1.4,-16.09z"/>
   <path class="fil2" d="M14468.66 15049.37l519.64 -1578.48 514.24 -0.88 -387.7 1176.43 853.5 -1.45c1.79,0 -8.52,16.88 -30.97,50.66 -22.44,33.76 -50.71,73.01 -84.82,117.72 -34.1,44.71 -69.99,89.4 -107.68,134.11 -37.69,44.72 -69.1,78.02 -94.24,99.88l-1181.97 2.01zm1513.13 -2.57l516.95 -0.87 519.65 -1578.49 -516.96 0.88 -519.64 1578.48zm1763.55 -517.94l-129.24 -1062.43 -468.48 0.79 166.93 1276.68c5.38,23.82 11.65,53.07 18.85,87.78 7.18,34.73 16.14,67.94 26.93,99.67 10.76,31.74 23.34,58.52 37.69,80.31 14.35,21.8 31.41,32.69 51.14,32.65l444.27 -0.75c12.55,-0.02 28.72,-7.48 48.45,-22.4 19.75,-14.91 39.03,-32.82 57.89,-53.67 18.85,-20.87 36.34,-41.25 52.51,-61.12 16.16,-19.87 28.72,-35.77 37.69,-47.68l955.79 -1394.68 -554.62 0.94 -745.8 1063.91zm910.03 513.41l516.96 -0.88 519.62 -1578.48 -516.93 0.88 -519.65 1578.48zm673.12 -1.14l516.93 -0.88 290.8 -887.51 150.76 886.76 651.57 -1.1 519.64 -1578.48 -511.57 0.86 -293.47 887.54 -153.47 -886.78 -651.57 1.11 -519.62 1578.48zm3656.31 -988.48l-336.56 982.85 -401.15 0.68c-111.3,0.19 -219.9,-10.54 -325.8,-32.19 -105.91,-21.64 -201.02,-59.68 -285.41,-114.12 -84.35,-54.41 -152.11,-128.23 -203.27,-221.41 -51.14,-93.17 -76.72,-211.21 -76.72,-354.09 0,-95.24 18.83,-193.5 56.54,-294.78 37.69,-101.26 88.83,-193.62 153.45,-277.07 64.64,-83.45 139.12,-151.55 223.49,-204.29 84.35,-52.71 174.1,-79.17 269.23,-79.33l1111.98 -1.89c-52.06,75.49 -104.57,146.54 -157.51,213.1 -52.96,66.57 -110.85,129.68 -173.67,189.3l-700.02 1.19c-28.72,0.05 -56.54,8.53 -83.47,25.44 -26.91,16.92 -51.59,39.3 -74.04,67.11 -22.44,27.82 -42.64,59.1 -60.58,93.87 -17.96,34.75 -32.3,69.01 -43.07,102.77 -14.37,51.61 -21.54,92.3 -21.54,122.07 0,37.69 8.52,77.86 25.58,120.5 17.04,42.63 39.48,81.78 67.31,117.46 27.82,35.68 58.33,65.39 91.54,89.15 33.21,23.75 65.96,35.61 98.27,35.55l158.85 -0.27 61.93 -193.59 -304.25 0.52 0 -2.97c1.79,-5.96 13,-25.33 33.65,-58.1 20.65,-32.79 45.34,-69.54 74.06,-110.27 28.72,-40.72 58.78,-81.45 90.17,-122.19 31.42,-40.73 59.71,-72.04 84.82,-93.9l646.19 -1.1z"/>
   <path class="fil3" d="M15879.16 14697.41l-829.27 1.41 203.11 -616.32c-149.43,26.09 -298.99,56.67 -448.7,92.16l-270.71 822.3 1102.01 -1.87c27.31,-25.45 53.6,-55.78 77.73,-84.39 36.3,-43.05 71.75,-87.1 106.17,-132.23 20.24,-26.54 40.32,-53.5 59.66,-81.06z"/>
   <path class="fil3" d="M16386.02 13963.95l-339.23 1030.45 421.55 -0.72 341.7 -1038.03c-141.28,-0.08 -282.62,2.57 -424.02,8.3z"/>
   <path class="fil3" d="M17257.79 13964.63l100.49 768.48c6.45,28.62 12.51,57.38 18.47,86.15 6.51,31.51 14.78,62.52 25,92.65 8.05,23.72 18.24,47.46 31.59,67.71 3.99,6.08 8.94,12.41 15.95,12.4l444.01 -0.76c6.17,-0.77 19.67,-10.3 24.68,-14.09 18.41,-13.89 35.51,-30.12 51.42,-47.73 17.36,-19.22 34.36,-38.9 50.85,-59.17 12.1,-14.88 24.23,-29.91 35.87,-45.33l515.87 -752.72c-139.14,-16.27 -278.26,-31.35 -417.34,-44.9l-438.99 626.21 -81.38 -669.09c-125.5,-8.28 -250.98,-14.97 -376.49,-19.81z"/>
   <path class="fil3" d="M19004.77 14126.3l-284.31 863.56 421.55 -0.71 265.87 -807.65c-134.44,-18.97 -268.8,-37.47 -403.11,-55.2z"/>
   <path class="fil3" d="M19648.05 14215.81l-254.45 772.91 421.48 -0.71 233.87 -713.83c-133.72,-19.55 -267.35,-39.1 -400.9,-58.37z"/>
   <path class="fil3" d="M20206.37 14297.12l117.31 690.02 584.61 -0.99 186.12 -565.38c-133.29,-17.22 -266.45,-35.25 -399.49,-53.79l-54.96 166.2 -30.86 -178.23c-134.34,-18.93 -268.59,-38.3 -402.73,-57.83z"/>
   <path class="fil3" d="M21411.47 14460.08c10.27,63.64 28.68,125.08 58.79,179.98 47.62,86.72 110.35,154.28 187.36,203.95 84.58,54.59 176.72,89.04 271.62,108.47 105.04,21.45 211.49,31.58 318.11,31.4l371.12 -0.63 140.58 -410.46c-129.04,-5.32 -257.89,-12.47 -386.57,-21.24l-43.16 134.93 -189.66 0.32c-43.67,0.07 -84.5,-16.73 -121.46,-43.17 -37.67,-26.95 -71.41,-60.29 -101.2,-98.46 -8.35,-10.73 -16.33,-21.79 -23.87,-33.21 -160.78,-15.46 -321.31,-32.93 -481.66,-51.88z"/>
   <path class="fil2" d="M17423.47 16495.69l0 -17.85c0,-15.87 -2.7,-32.24 -8.08,-49.1 -5.38,-16.86 -15.24,-25.28 -29.61,-25.25l-538.48 0.91c-53.86,0.09 -102.31,-14.22 -145.38,-42.91 -43.07,-28.69 -80.33,-65.36 -111.75,-109.93 -31.41,-44.6 -55.17,-93.67 -71.34,-147.22 -16.14,-53.55 -24.21,-106.13 -24.21,-157.72 0,-47.62 12.53,-101.73 37.66,-162.29 25.14,-60.56 57.45,-118.17 96.93,-172.81 39.5,-54.63 84.37,-100.34 134.64,-137.13 50.24,-36.82 100.51,-55.24 150.77,-55.33l1373.1 -2.33c-41.28,67.53 -88.38,135.09 -141.36,202.63 -52.94,67.57 -111.73,135.13 -176.34,202.72l-888.49 1.5c-19.73,0.04 -36.8,14.95 -51.15,44.74 -14.37,29.79 -21.54,53.61 -21.54,71.47l0 14.88c0,1.99 3.59,6.44 10.78,13.37 7.18,6.95 12.56,12.39 16.15,16.35 7.17,7.93 17.48,15.35 30.96,22.26 13.45,6.94 21.07,10.39 22.89,10.39l511.53 -0.87c57.44,-0.1 106.81,15.21 148.09,45.89 41.28,30.68 74.95,69.32 100.96,115.91 26.03,46.59 45.33,96.66 57.89,150.21 12.58,53.56 18.86,103.17 18.86,148.81l0 17.85c0,51.59 -10.79,106.68 -32.31,165.27 -21.55,58.56 -49.82,112.68 -84.82,162.34 -35,49.69 -75.4,90.93 -121.14,123.74 -45.78,32.82 -92.89,49.27 -141.36,49.36l-1373.12 2.32c8.99,-19.85 27.38,-51.63 55.2,-95.35 27.83,-43.69 57.42,-87.9 88.85,-132.59 31.42,-44.7 60.59,-84.45 87.51,-119.21 26.93,-34.77 43.07,-52.16 48.45,-52.17l915.42 -1.55c26.91,-0.05 42.62,-9.02 47.11,-26.88 4.48,-17.86 6.73,-36.72 6.73,-56.56l0 -17.87z"/>
   <polygon class="fil2" points="17921.56,16994.91 18438.48,16994.03 18672.73,16285.22 19200.42,16992.74 19776.59,16991.77 19259.66,16203.85 20191.22,15413.51 19615.05,15414.48 18723.87,16124.41 18958.1,15415.6 18441.17,15416.47 "/>
   <polygon class="fil2" points="19806.21,16991.72 20323.15,16990.84 20842.75,15412.4 20325.84,15413.28 "/>
   <path class="fil2" d="M20998.93 15412.14l-519.6 1578.43 1354.26 -2.29c1.79,-0.01 12.98,-9.95 33.63,-29.83 20.65,-19.87 44.44,-44.23 71.36,-73.04 26.93,-28.81 54.29,-59.14 82.11,-90.92 27.82,-31.8 49.82,-59.61 65.96,-83.45 1.8,-1.99 6.3,-8.96 13.45,-20.87 7.2,-11.92 14.38,-24.83 21.55,-38.73 7.18,-13.91 14.37,-27.31 21.55,-40.22 7.17,-12.91 11.68,-21.35 13.47,-25.33l-1031.18 1.75 59.22 -178.68 535.79 -0.91 385.01 -402.49 -621.93 1.06 -255.78 274.27 153.45 -467.57 829.25 -1.4c14.38,-0.03 37.27,-15.95 68.66,-47.76 31.41,-31.81 63.72,-69.55 96.92,-113.28 33.21,-43.7 64.62,-87.91 94.24,-132.59 29.61,-44.7 50.71,-80.95 63.27,-108.76l-1534.66 2.61z"/>
   <path class="fil2" d="M23440.89 16485.49l0 -17.85c0,-15.87 -2.69,-32.24 -8.07,-49.1 -5.38,-16.86 -15.25,-25.28 -29.62,-25.26l-538.48 0.91c-53.85,0.1 -102.3,-14.21 -145.38,-42.9 -43.07,-28.7 -80.33,-65.36 -111.74,-109.94 -31.41,-44.59 -55.18,-93.67 -71.34,-147.22 -16.15,-53.55 -24.22,-106.13 -24.22,-157.72 0,-47.62 12.54,-101.73 37.67,-162.29 25.13,-60.56 57.44,-118.16 96.92,-172.81 39.51,-54.62 84.37,-100.33 134.64,-137.13 50.25,-36.81 100.51,-55.24 150.78,-55.32l1373.09 -2.33c-41.27,67.53 -88.38,135.08 -141.36,202.63 -52.93,67.57 -111.72,135.12 -176.34,202.71l-888.49 1.51c-19.73,0.03 -36.79,14.94 -51.14,44.74 -14.37,29.79 -21.55,53.61 -21.55,71.46l0 14.89c0,1.98 3.59,6.44 10.79,13.37 7.17,6.94 12.55,12.38 16.14,16.35 7.18,7.93 17.49,15.34 30.96,22.26 13.46,6.94 21.08,10.38 22.89,10.38l511.54 -0.87c59.23,-0.1 109.5,15.21 150.78,45.89 41.29,30.68 74.93,69.32 100.98,115.91 26.01,46.59 44.86,96.66 56.52,150.22 11.68,53.55 17.51,103.17 17.51,148.8l0 17.85c0,51.59 -10.78,106.68 -32.31,165.27 -21.54,58.57 -49.82,112.69 -84.81,162.35 -35,49.69 -75.4,90.93 -121.14,123.74 -45.79,32.81 -92.89,49.27 -141.37,49.35l-1373.11 2.33c8.99,-19.85 27.37,-51.64 55.2,-95.35 27.82,-43.7 57.42,-87.91 88.85,-132.59 31.41,-44.7 60.58,-84.45 87.51,-119.22 26.93,-34.76 43.07,-52.15 48.45,-52.16l915.42 -1.55c26.9,-0.05 42.62,-9.02 47.1,-26.88 4.49,-17.86 6.73,-36.72 6.73,-56.56l0 -17.87z"/>
   <path class="fil3" d="M16438.67 16685.85c-29.58,38.19 -58.13,77.51 -86.1,117.32 -30.04,42.73 -59.28,86.26 -87.53,130.64l-7.43 11.63 1289.79 -2.19c42.67,-0.07 81.94,-15.66 118.22,-41.69 41.98,-30.1 78.69,-67.91 110.06,-112.42 32.05,-45.5 58.29,-95.55 78.21,-149.74 16.68,-45.36 28.66,-94.8 28.66,-144.51l0 -17.85c0,-8.33 -0.23,-16.66 -0.68,-24.96 -137.37,13.17 -275.3,25.26 -413.82,36.06l0 25.31c0,24.19 -2.73,48.18 -8.56,71.38 -12.02,47.89 -50.82,64.36 -89.79,64.42l-902.59 1.53c-9.67,10.16 -21.56,26.18 -28.44,35.07z"/>
   <path class="fil3" d="M18157.27 16424.11l-170.66 518.4 421.57 -0.72 187.74 -568.14c-145.61,17.87 -291.82,34.75 -438.65,50.46z"/>
   <path class="fil3" d="M18780.76 16350.43l440.04 589.98 465.57 -0.79 -428.97 -653.85c-158.24,22.5 -317.09,44.12 -476.64,64.66z"/>
   <path class="fil3" d="M20130.02 16153.6l-258.66 785.71 421.55 -0.72 282.08 -856.91c-147.85,24.21 -296.15,48.25 -444.97,71.92z"/>
   <path class="fil3" d="M20840.85 16037.96l-296.35 900.21 1276.15 -2.17c6.45,-5.79 13.07,-12.51 18.72,-17.97 23.77,-22.91 46.88,-46.95 69.6,-71.26 27.44,-29.39 54.45,-59.33 81.06,-89.76 21.56,-24.66 43.41,-50.84 62.16,-78.54l1.98 -2.93 1.01 -1.09c3.11,-4.47 6.17,-9.81 8.96,-14.47 4.3,-7.1 8.42,-14.35 12.41,-21.68l-1015.89 1.73 93.92 -283.36 0.94 0 128.63 -391.93c-147.36,24.29 -295.11,48.78 -443.3,73.22z"/>
   <polygon class="fil3" points="21501.11,16058.82 21223.44,16356.56 21703.91,16355.74 21988.72,16057.99 "/>
   <path class="fil3" d="M22578.58 16076.53c14.54,48.19 35.98,92.02 63.72,131.39 27.99,39.75 61.22,72.37 99.42,97.82 38.1,25.39 79.7,36.21 123.41,36.14l538.5 -0.92c33.52,-0.05 59.6,22.5 71.28,59.1 6.92,21.64 10.93,44.31 10.93,67.48l0 35.7c0,24.2 -2.73,48.18 -8.56,71.38 -12.02,47.9 -50.82,64.36 -89.8,64.43l-902.58 1.53c-9.67,10.16 -21.57,26.17 -28.44,35.07 -29.58,38.19 -58.15,77.5 -86.1,117.31 -30.05,42.74 -59.28,86.26 -87.55,130.64l-7.41 11.63 1289.79 -2.18c42.67,-0.08 81.91,-15.67 118.22,-41.7 41.98,-30.09 78.66,-67.91 110.03,-112.42 32.08,-45.49 58.32,-95.55 78.24,-149.74 16.68,-45.36 28.66,-94.79 28.66,-144.5l0 -17.85c0,-45.68 -6.51,-91.73 -16.12,-135.85 -10.49,-48.12 -27.46,-93.04 -50.63,-134.53 -22.89,-40.98 -52.34,-74.24 -87.6,-100.45 -38.01,-28.25 -82.51,-37.87 -126.94,-37.79l-511.6 0.86c-13.35,0.03 -28.61,-8.51 -40.76,-14.77 -15.63,-8.02 -31.07,-18.25 -43.57,-32.04 -4.42,-4.88 -9.26,-9.53 -13.94,-14.07 -14.58,-14.07 -26.99,-29.44 -26.99,-53.72l0 -14.89c0,-33.67 13.43,-68.46 27.33,-97.27 19.28,-40.03 48.88,-71.23 89.86,-71.3l871.56 -1.48c55.84,-59.09 109.71,-120.9 160.62,-185.86 0.15,-0.19 0.3,-0.36 0.45,-0.55 -505.96,44.35 -1013.14,108.4 -1523.47,182.78 -6.51,13.43 -12.66,27.08 -18.43,41.01 -17.4,41.91 -33.2,92.12 -33.2,139.35 0,48.05 8.05,95.1 21.67,140.26z"/>
  </g>
 </g>
</svg>
