<?xml version="1.0" encoding="UTF-8"?>
<!DOCTYPE svg PUBLIC "-//W3C//DTD SVG 1.1//EN" "http://www.w3.org/Graphics/SVG/1.1/DTD/svg11.dtd">
<!-- Creator: CorelDRAW 2020 (64-Bit) -->
<svg xmlns="http://www.w3.org/2000/svg" xml:space="preserve" width="63.5mm" height="228.6mm" version="1.1" style="shape-rendering:geometricPrecision; text-rendering:geometricPrecision; image-rendering:optimizeQuality; fill-rule:evenodd; clip-rule:evenodd"
viewBox="0 0 6350 22860"
 xmlns:xlink="http://www.w3.org/1999/xlink"
 xmlns:xodm="http://www.corel.com/coreldraw/odm/2003">
 <defs>
  <style type="text/css">
   <![CDATA[
    .fil0 {fill:#201E1E}
    .fil1 {fill:black}
    .fil3 {fill:#C7C7C6}
    .fil2 {fill:white;fill-rule:nonzero}
   ]]>
  </style>
 </defs>
 <g id="Layer_x0020_1">
  <metadata id="CorelCorpID_0Corel-Layer"/>
  <g id="_2116854192896">
   <path class="fil0" d="M21633.94 7894.32c-9.06,32.6 -19.85,74.93 -19.85,109.73 0,34.22 8.76,68.78 21.92,101.68 14.91,37.29 34.79,72.41 59.88,104.58 23.12,29.64 49.7,56.46 80.22,78.3 20.18,14.44 42.79,25.21 66.64,25.17l127.25 -0.22 28.9 -90.34 -229.03 0.39c-15.54,0.02 -29.59,-6.02 -41.26,-17.75 -11.66,-11.72 -17.69,-25.85 -17.69,-41.49l0 -3.02c0,-5.25 0.64,-9.67 2.1,-14.55 6.14,-20.37 28.15,-52.65 39.44,-70.56 24.45,-38.82 50.28,-76.75 76.65,-114.15 30.08,-42.65 61.07,-84.59 92.88,-125.86 27.65,-35.86 58.23,-72.26 92.36,-101.97 8.77,-7.64 18.86,-11.32 31.09,-11.34l657.41 -1.12c18.47,-0.03 35.34,8.74 47.07,24.48 11.73,15.74 15.04,34.03 9.22,51.03l-342.41 999.91c-6.61,19.32 -23.25,30.99 -44.24,31.02l-408.12 0.7c-113.61,0.19 -228.39,-10.56 -342.3,-33.85 -108.68,-22.21 -213.83,-62.03 -310.42,-124.35 -96.91,-62.51 -172.19,-146.66 -227.6,-247.59 -65.91,-120.05 -85.31,-259.2 -85.31,-387.79 0,-110.83 23.44,-217.49 60.61,-317.36 39.81,-106.91 94.23,-205.4 162.85,-294.01 66.82,-86.29 146.28,-160.42 239.06,-218.41 89.12,-55.7 188.99,-87.66 299.31,-87.84l1131.28 -1.92c20.78,-0.04 39.86,11.32 50.93,30.31 11.07,19 10.95,40.16 -0.32,56.51 -51.67,74.92 -105.56,148.21 -162.08,219.27 -55.66,69.98 -116.18,135.77 -180.91,197.19 -8.92,8.47 -19.58,12.61 -32.51,12.63l-712.17 1.21c-22.01,0.04 -41.8,7.63 -59.42,18.7 -24.76,15.56 -46,35.81 -64.28,58.47 -21.82,27.05 -40.54,56.65 -56.62,87.8 -15.91,30.81 -29.81,62.96 -40.53,96.41z"/>
   <path class="fil0" d="M20351.53 7856.84l233.34 -705.68c6.47,-19.57 23.24,-31.47 44.41,-31.5l520.46 -0.89c18.36,-0.03 35.13,8.64 46.88,24.24 11.75,15.6 15.18,33.74 9.59,50.73l-528.67 1605.89c-6.45,19.61 -23.24,31.53 -44.43,31.56l-662.89 1.13c-27.9,0.04 -53.37,-21.9 -58.17,-50.11l-116.25 -683.78 -230.34 703.02c-6.44,19.64 -23.24,31.59 -44.46,31.63l-525.91 0.89c-18.36,0.03 -35.13,-8.63 -46.88,-24.23 -11.75,-15.6 -15.18,-33.75 -9.58,-50.73l528.64 -1605.9c6.46,-19.6 23.24,-31.52 44.43,-31.56l662.89 -1.12c27.84,-0.05 53.27,21.79 58.14,49.94l118.8 686.47z"/>
   <path class="fil0" d="M18253.82 8760.16l528.67 -1605.89c6.46,-19.6 23.24,-31.52 44.43,-31.56l525.91 -0.89c18.37,-0.03 35.14,8.64 46.89,24.23 11.75,15.6 15.17,33.75 9.58,50.74l-528.64 1605.89c-6.46,19.6 -23.24,31.53 -44.44,31.56l-525.93 0.89c-18.36,0.04 -35.13,-8.63 -46.88,-24.23 -11.75,-15.6 -15.18,-33.75 -9.59,-50.74z"/>
   <path class="fil0" d="M17413.19 8112.81l679.62 -969.49c8.9,-12.7 22.12,-19.4 38.36,-19.43l564.26 -0.96c20.75,-0.03 39.81,11.29 50.89,30.25 11.08,18.97 11,40.11 -0.22,56.47l-972.39 1418.89c-0.4,0.59 -0.75,1.08 -1.18,1.64 -12.73,16.91 -26.04,33.45 -39.38,49.85 -17.75,21.81 -36.1,43.1 -54.94,63.94 -19.85,21.97 -41.46,42.43 -65.11,60.3 -21.84,16.5 -48.52,32.13 -77.98,32.18l-451.98 0.76c-42.06,0.08 -77.17,-24.18 -101.19,-60.67 -19.51,-29.63 -33.94,-62.61 -45.12,-95.52 -12.1,-35.65 -21.72,-71.86 -29.26,-108.27 -6.1,-29.45 -12.33,-58.91 -18.96,-88.3 -0.41,-1.77 -0.68,-3.29 -0.91,-5.08l-169.82 -1298.85c-1.94,-14.83 1.66,-27.7 10.73,-38.31 9.07,-10.6 21.07,-15.98 35.72,-16l476.61 -0.81c28.81,-0.05 55.01,23.54 58.56,52.71l113.69 934.7z"/>
   <path class="fil0" d="M15533.82 8764.77l528.67 -1605.88c6.45,-19.61 23.24,-31.53 44.43,-31.57l525.93 -0.89c18.37,-0.03 35.14,8.64 46.88,24.24 11.75,15.6 15.18,33.74 9.59,50.73l-528.67 1605.89c-6.45,19.61 -23.23,31.53 -44.43,31.56l-525.93 0.89c-18.37,0.04 -35.14,-8.63 -46.89,-24.23 -11.74,-15.6 -15.17,-33.74 -9.58,-50.74z"/>
   <path class="fil1" d="M14777.48 8325.76l787.09 -1.34c12.42,-0.02 24.95,4.39 35.38,12.49 25.5,19.77 29.02,49.77 17.1,72.89 -2.15,4.17 -4.58,8.23 -7.01,12.22 -8.3,13.58 -17.14,26.89 -25.93,40.12 -27.79,41.81 -57.64,82.35 -88,122.16 -35.85,46.99 -72.88,93.02 -110.93,138.15 -30.97,36.74 -64.47,75 -100.71,106.53 -8.78,7.64 -18.86,11.31 -31.08,11.34l-1202.5 2.04c-18.37,0.03 -35.14,-8.64 -46.89,-24.24 -11.75,-15.6 -15.18,-33.74 -9.58,-50.73l528.67 -1605.89c6.45,-19.61 23.23,-31.53 44.43,-31.57l523.17 -0.88c18.37,-0.03 35.14,8.64 46.89,24.24 11.75,15.6 15.17,33.75 9.57,50.74l-369.67 1121.73z"/>
   <path class="fil0" d="M21680.46 7959.88c-9.06,32.59 -19.85,74.92 -19.85,109.72 0,34.23 8.76,68.79 21.92,101.68 14.91,37.29 34.79,72.41 59.88,104.58 23.12,29.65 49.7,56.46 80.22,78.3 20.18,14.44 42.79,25.21 66.64,25.17l127.25 -0.22 28.9 -90.34 -229.03 0.39c-15.54,0.02 -29.59,-6.02 -41.26,-17.74 -11.66,-11.73 -17.69,-25.86 -17.69,-41.5l0 -3.01c0,-5.26 0.64,-9.68 2.11,-14.56 6.13,-20.37 28.15,-52.65 39.43,-70.56 24.45,-38.82 50.28,-76.75 76.65,-114.15 30.08,-42.65 61.07,-84.59 92.88,-125.86 27.65,-35.86 58.23,-72.26 92.36,-101.97 8.77,-7.64 18.86,-11.32 31.09,-11.34l657.41 -1.12c18.47,-0.03 35.34,8.75 47.07,24.49 11.73,15.74 15.04,34.02 9.22,51.02l-342.4 999.91c-6.62,19.32 -23.26,30.99 -44.25,31.03l-408.12 0.69c-113.61,0.19 -228.39,-10.56 -342.3,-33.84 -108.68,-22.22 -213.82,-62.04 -310.42,-124.36 -96.9,-62.51 -172.19,-146.66 -227.6,-247.59 -65.9,-120.04 -85.31,-259.19 -85.31,-387.79 0,-110.83 23.44,-217.49 60.62,-317.35 39.8,-106.92 94.22,-205.41 162.84,-294.02 66.82,-86.29 146.28,-160.42 239.06,-218.41 89.12,-55.7 188.99,-87.66 299.31,-87.84l1131.28 -1.92c20.78,-0.04 39.86,11.32 50.93,30.31 11.07,19 10.95,40.17 -0.32,56.51 -51.67,74.92 -105.55,148.22 -162.08,219.28 -55.66,69.97 -116.18,135.76 -180.9,197.19 -8.93,8.47 -19.59,12.6 -32.52,12.63l-712.17 1.2c-22.01,0.04 -41.8,7.63 -59.42,18.7 -24.75,15.56 -46,35.82 -64.28,58.47 -21.82,27.05 -40.54,56.65 -56.62,87.8 -15.91,30.81 -29.81,62.96 -40.53,96.42z"/>
   <path class="fil0" d="M20398.06 7922.39l233.33 -705.68c6.47,-19.57 23.24,-31.47 44.41,-31.5l520.46 -0.89c18.36,-0.03 35.13,8.64 46.88,24.24 11.75,15.6 15.18,33.74 9.59,50.73l-528.67 1605.89c-6.45,19.61 -23.24,31.53 -44.43,31.56l-662.88 1.13c-27.91,0.05 -53.38,-21.9 -58.18,-50.11l-116.24 -683.78 -230.35 703.02c-6.44,19.64 -23.24,31.6 -44.45,31.63l-525.91 0.89c-18.37,0.04 -35.14,-8.63 -46.89,-24.23 -11.75,-15.6 -15.18,-33.74 -9.58,-50.73l528.64 -1605.89c6.46,-19.61 23.24,-31.53 44.44,-31.57l662.88 -1.12c27.84,-0.05 53.27,21.79 58.14,49.94l118.81 686.47z"/>
   <path class="fil0" d="M18300.35 8825.71l528.66 -1605.89c6.46,-19.6 23.24,-31.52 44.44,-31.56l525.9 -0.89c18.37,-0.03 35.14,8.64 46.89,24.24 11.75,15.59 15.17,33.74 9.58,50.73l-528.64 1605.89c-6.46,19.61 -23.24,31.53 -44.43,31.56l-525.93 0.89c-18.37,0.04 -35.14,-8.63 -46.89,-24.23 -11.75,-15.6 -15.18,-33.75 -9.58,-50.74z"/>
   <path class="fil0" d="M17459.71 8178.36l679.62 -969.49c8.9,-12.7 22.13,-19.4 38.37,-19.43l564.25 -0.95c20.75,-0.04 39.81,11.29 50.89,30.25 11.08,18.96 11,40.1 -0.21,56.46l-972.4 1418.9c-0.4,0.58 -0.75,1.07 -1.17,1.63 -12.74,16.91 -26.05,33.45 -39.39,49.85 -17.75,21.81 -36.1,43.1 -54.94,63.94 -19.85,21.97 -41.46,42.43 -65.11,60.31 -21.84,16.49 -48.51,32.12 -77.98,32.17l-451.98 0.76c-42.06,0.08 -77.17,-24.17 -101.19,-60.67 -19.5,-29.63 -33.94,-62.61 -45.12,-95.52 -12.1,-35.65 -21.72,-71.86 -29.26,-108.27 -6.1,-29.45 -12.33,-58.9 -18.96,-88.29 -0.41,-1.78 -0.68,-3.3 -0.91,-5.09l-169.82 -1298.84c-1.94,-14.84 1.66,-27.71 10.73,-38.31 9.07,-10.61 21.07,-15.98 35.72,-16.01l476.61 -0.81c28.81,-0.05 55.01,23.54 58.56,52.71l113.69 934.7z"/>
   <path class="fil0" d="M15580.34 8830.33l528.67 -1605.89c6.46,-19.61 23.24,-31.53 44.43,-31.56l525.93 -0.9c18.37,-0.03 35.14,8.64 46.89,24.24 11.74,15.6 15.17,33.74 9.58,50.73l-528.66 1605.89c-6.46,19.61 -23.24,31.53 -44.44,31.56l-525.93 0.9c-18.36,0.03 -35.14,-8.64 -46.88,-24.24 -11.75,-15.59 -15.18,-33.74 -9.59,-50.73z"/>
   <path class="fil1" d="M14824 8391.31l787.09 -1.34c12.42,-0.02 24.95,4.4 35.38,12.49 25.5,19.78 29.02,49.77 17.1,72.89 -2.15,4.17 -4.57,8.23 -7.01,12.23 -8.3,13.57 -17.14,26.89 -25.93,40.11 -27.79,41.81 -57.64,82.35 -88,122.16 -35.85,46.99 -72.88,93.02 -110.93,138.15 -30.97,36.74 -64.47,75 -100.71,106.54 -8.77,7.63 -18.86,11.31 -31.08,11.33l-1202.5 2.04c-18.37,0.03 -35.14,-8.64 -46.89,-24.24 -11.74,-15.6 -15.17,-33.74 -9.58,-50.73l528.67 -1605.89c6.45,-19.61 23.23,-31.53 44.43,-31.56l523.17 -0.89c18.37,-0.03 35.14,8.64 46.89,24.24 11.75,15.6 15.17,33.75 9.58,50.74l-369.68 1121.73z"/>
   <path class="fil2" d="M14044.87 8789.09l528.67 -1605.89 523.17 -0.89 -394.43 1196.85 868.31 -1.47c1.82,0 -8.67,17.18 -31.51,51.54 -22.83,34.34 -51.59,74.28 -86.29,119.76 -34.69,45.49 -71.21,90.95 -109.55,136.44 -38.35,45.5 -70.3,79.37 -95.87,101.62l-1202.5 2.04zm1539.4 -2.61l525.93 -0.89 528.67 -1605.89 -525.93 0.89 -528.67 1605.89zm1794.17 -526.93l-131.48 -1080.88 -476.61 0.81 169.82 1298.84c5.47,24.23 11.86,53.99 19.18,89.3 7.3,35.33 16.42,69.12 27.4,101.41 10.94,32.28 23.74,59.52 38.34,81.7 14.6,22.18 31.96,33.25 52.03,33.22l451.98 -0.77c12.77,-0.02 29.22,-7.61 49.29,-22.78 20.1,-15.18 39.71,-33.4 58.9,-54.61 19.18,-21.24 36.97,-41.97 53.42,-62.18 16.44,-20.21 29.22,-36.4 38.34,-48.51l972.39 -1418.9 -564.25 0.96 -758.75 1082.39zm925.84 522.32l525.93 -0.9 528.64 -1605.88 -525.91 0.89 -528.66 1605.89zm684.8 -1.16l525.91 -0.9 295.84 -902.92 153.38 902.16 662.88 -1.12 528.67 -1605.89 -520.46 0.88 -298.56 902.95 -156.14 -902.18 -662.88 1.13 -528.64 1605.89zm3719.79 -1005.64l-342.4 999.91 -408.12 0.69c-113.23,0.19 -223.72,-10.72 -331.45,-32.74 -107.76,-22.02 -204.52,-60.72 -290.37,-116.11 -85.82,-55.36 -154.75,-130.45 -206.8,-225.25 -52.03,-94.79 -78.06,-214.88 -78.06,-360.24 0,-96.89 19.16,-196.86 57.53,-299.9 38.34,-103.02 90.37,-196.98 156.11,-281.88 65.76,-84.9 141.54,-154.18 227.37,-207.83 85.81,-53.63 177.12,-80.55 273.91,-80.72l1131.28 -1.92c-52.96,76.8 -106.38,149.09 -160.24,216.81 -53.88,67.72 -112.77,131.92 -176.69,192.58l-712.17 1.21c-29.22,0.05 -57.53,8.68 -84.92,25.88 -27.37,17.21 -52.49,39.98 -75.32,68.28 -22.83,28.31 -43.39,60.12 -61.63,95.5 -18.27,35.36 -32.87,70.2 -43.82,104.55 -14.62,52.51 -21.92,93.91 -21.92,124.19 0,38.35 8.67,79.22 26.02,122.59 17.34,43.38 40.17,83.2 68.48,119.5 28.31,36.3 59.35,66.53 93.13,90.7 33.78,24.16 67.11,36.23 99.98,36.17l161.61 -0.27 63 -196.96 -309.53 0.53 0 -3.02c1.82,-6.06 13.23,-25.77 34.24,-59.11 21,-33.36 46.12,-70.74 75.34,-112.18 29.22,-41.43 59.8,-82.87 91.74,-124.31 31.96,-41.44 60.74,-73.29 86.29,-95.54l657.41 -1.11z"/>
   <path class="fil3" d="M15479.86 8431.02l-843.67 1.44 206.64 -627.02c-152.02,26.54 -304.18,57.65 -456.49,93.75l-275.41 836.58 1121.14 -1.9c27.79,-25.9 54.53,-56.75 79.08,-85.86 36.93,-43.79 73,-88.6 108.02,-134.52 20.59,-27 41.01,-54.43 60.69,-82.47z"/>
   <path class="fil3" d="M15995.52 7684.82l-345.12 1048.34 428.87 -0.72 347.63 -1056.06c-143.73,-0.08 -287.52,2.61 -431.38,8.44z"/>
   <path class="fil3" d="M16882.42 7685.51l102.24 781.83c6.56,29.12 12.73,58.37 18.79,87.65 6.63,32.05 15.03,63.6 25.44,94.26 8.19,24.12 18.55,48.28 32.13,68.88 4.06,6.18 9.1,12.63 16.23,12.61l451.72 -0.76c6.28,-0.79 20.01,-10.49 25.11,-14.34 18.73,-14.13 36.13,-30.65 52.32,-48.56 17.66,-19.56 34.95,-39.57 51.72,-60.2 12.32,-15.14 24.66,-30.43 36.5,-46.11l524.82 -765.8c-141.56,-16.55 -283.09,-31.88 -424.58,-45.68l-446.62 637.09 -82.79 -680.71c-127.68,-8.42 -255.33,-15.23 -383.03,-20.16z"/>
   <path class="fil3" d="M18659.73 7850l-289.24 878.55 428.87 -0.73 270.49 -821.67c-136.78,-19.3 -273.47,-38.12 -410.12,-56.15z"/>
   <path class="fil3" d="M19314.19 7941.06l-258.87 786.33 428.79 -0.73 237.93 -726.22c-136.04,-19.89 -271.99,-39.77 -407.85,-59.38z"/>
   <path class="fil3" d="M19882.2 8023.78l119.35 702 594.75 -1 189.36 -575.2c-135.61,-17.52 -271.08,-35.87 -406.43,-54.73l-55.92 169.09 -31.39 -181.33c-136.67,-19.25 -273.25,-38.96 -409.72,-58.83z"/>
   <path class="fil3" d="M21108.22 8189.57c10.45,64.74 29.18,127.26 59.81,183.1 48.45,88.23 112.27,156.97 190.61,207.5 86.05,55.53 179.79,90.59 276.34,110.34 106.86,21.83 215.16,32.14 323.63,31.96l377.57 -0.64 143.01 -417.6c-131.28,-5.4 -262.36,-12.67 -393.28,-21.6l-43.9 137.27 -192.96 0.32c-44.42,0.08 -85.96,-17.01 -123.57,-43.91 -38.32,-27.42 -72.64,-61.34 -102.95,-100.17 -8.49,-10.91 -16.62,-22.18 -24.29,-33.78 -163.56,-15.74 -326.89,-33.51 -490.02,-52.79z"/>
   <path class="fil0" d="M23118.52 10209.64l-525.8 0.89c-62.97,0.11 -123.93,-16.45 -179.54,-53.49 -51.18,-34.09 -94.56,-77.4 -130.1,-127.84 -36.41,-51.68 -63.22,-107.96 -81.07,-167.12 -17.58,-58.29 -27.04,-117.49 -27.04,-176.51 0,-64.12 18.58,-127.65 42.05,-184.2 27.43,-66.1 62.46,-127.93 103.8,-185.13 41.29,-57.11 90.02,-107.82 146.82,-149.41 52.09,-38.15 112.89,-65.16 181.54,-65.28l1396.94 -2.36c20.32,-0.04 38.96,10.77 50.21,29.12 11.26,18.35 11.91,38.99 1.75,55.6 -44.75,73.21 -94.13,143.27 -146.81,210.47 -57.2,72.97 -118.34,142.67 -182.28,209.55 -9.04,9.45 -20.32,14.15 -34.06,14.17l-900.9 1.53c-4.72,3.92 -10.77,15.22 -12.92,19.69 -5.03,10.44 -14.4,31.12 -16.64,45.54 3.85,3.83 7.65,7.74 11.26,11.75 2.85,3.14 10.33,7.25 13.95,9.11 2.56,1.32 5.33,2.79 8.1,4.17l509.85 -0.86c65.82,-0.11 130.89,16.18 187.64,58.36 49.86,37.04 89.79,83.51 119.97,137.53 29.99,53.69 50.94,110.54 63.7,169.09 11.78,54.05 19.09,108.99 19.09,163.07l0 18.17c0,64.53 -14.49,127.2 -35.89,185.41 -23.15,62.98 -53.87,121.9 -91.88,175.85 -37.09,52.65 -81.48,99.02 -133.76,136.5 -49.64,35.59 -106.9,58.82 -171.6,58.93l-1396.96 2.37c-19.28,0.04 -36.93,-9.6 -48.5,-26.49 -11.58,-16.88 -13.81,-36.24 -6.13,-53.2 15.85,-34.99 38.81,-70.62 59.26,-102.75 29.48,-46.29 60.06,-91.81 91.56,-136.61 29.25,-41.62 59.16,-82.81 90.26,-122.97 11.29,-14.56 22.95,-29.37 35.47,-42.85 13.66,-14.72 28.43,-27.88 50.92,-27.91l931.31 -1.58c1.08,0 2.66,-0.03 4.27,-0.14 2.45,-12.19 3.59,-24.73 3.59,-37.45l0 -36.34c0,-5.47 -0.51,-10.93 -1.43,-16.38z"/>
   <path class="fil0" d="M21117.59 9619.52l-65.83 200.57 89.37 -95.83c9.05,-9.7 20.49,-14.54 34.43,-14.57l632.73 -1.07c22.1,-0.04 42.42,12.97 52.81,33.81 10.4,20.83 7.81,43.37 -6.73,58.56l-391.69 409.48c-9.03,9.45 -20.32,14.14 -34.05,14.16l-511.1 0.87 -24.91 75.17 967.72 -1.64c19.27,-0.04 36.91,9.59 48.49,26.46 11.58,16.87 13.82,36.22 6.17,53.17 -4.46,9.88 -10.21,19.79 -15.45,29.22 -7.28,13.1 -14.36,26.33 -21.24,39.67 -7.37,14.27 -15.14,28.32 -23.39,42.03 -4.73,7.86 -10.29,17.64 -16.25,25.11 -20.92,30.65 -44.93,59.68 -69.25,87.48 -27.69,31.63 -55.82,62.88 -84.51,93.57 -24.18,25.87 -48.77,51.46 -74.27,76 -17.43,16.78 -39.87,43.14 -66.95,43.19l-1377.78 2.34c-18.36,0.03 -35.13,-8.64 -46.88,-24.24 -11.75,-15.6 -15.18,-33.74 -9.59,-50.73l528.63 -1605.85c6.45,-19.6 23.24,-31.52 44.43,-31.56l1561.3 -2.65c19.28,-0.03 36.92,9.6 48.49,26.47 11.58,16.87 13.82,36.22 6.16,53.18 -18.35,40.63 -43.58,80.36 -67.95,117.12 -31.05,46.87 -63.63,92.62 -97.55,137.28 -31.76,41.81 -65.6,82.33 -102.41,119.62 -25.38,25.72 -63.38,62.17 -103.39,62.24l-809.56 1.37z"/>
   <path class="fil1" d="M16996.62 10220.03l-525.79 0.88c-62.98,0.11 -123.94,-16.44 -179.55,-53.49 -51.17,-34.09 -94.56,-77.4 -130.09,-127.84 -36.41,-51.68 -63.23,-107.96 -81.08,-167.12 -17.58,-58.29 -27.04,-117.49 -27.04,-176.51 0,-64.12 18.58,-127.65 42.05,-184.2 27.43,-66.09 62.46,-127.93 103.81,-185.13 41.28,-57.11 90.02,-107.82 146.81,-149.41 52.09,-38.15 112.89,-65.16 181.54,-65.27l1396.94 -2.37c20.32,-0.04 38.96,10.77 50.21,29.12 11.26,18.35 11.91,38.99 1.76,55.6 -44.76,73.21 -94.14,143.27 -146.82,210.47 -57.2,72.97 -118.34,142.68 -182.28,209.55 -9.03,9.45 -20.32,14.15 -34.05,14.17l-900.9 1.53c-4.73,3.93 -10.78,15.22 -12.93,19.69 -5.03,10.44 -14.39,31.12 -16.63,45.54 3.84,3.84 7.63,7.74 11.26,11.75 2.84,3.14 10.31,7.25 13.94,9.12 2.56,1.32 5.33,2.78 8.11,4.16l509.84 -0.86c65.16,-0.11 128.9,16.74 184.91,58.37 49.84,37.04 89.79,83.52 119.95,137.54 29.86,53.46 51.23,110 64.89,168.19 12.73,54.26 20.65,109.54 20.65,163.95l0 18.17c0,64.54 -14.48,127.2 -35.89,185.41 -23.15,62.98 -53.86,121.9 -91.88,175.85 -37.08,52.65 -81.48,99.02 -133.76,136.5 -49.64,35.59 -106.9,58.83 -171.6,58.93l-1396.96 2.38c-19.28,0.03 -36.93,-9.61 -48.5,-26.5 -11.58,-16.88 -13.81,-36.24 -6.13,-53.19 15.85,-35 38.81,-70.63 59.27,-102.75 29.47,-46.3 60.05,-91.82 91.55,-136.62 29.26,-41.62 59.17,-82.81 90.27,-122.97 11.28,-14.56 22.94,-29.37 35.46,-42.85 13.66,-14.71 28.43,-27.87 50.92,-27.91l931.31 -1.58c1.08,0 2.66,-0.03 4.27,-0.14 2.45,-12.19 3.59,-24.73 3.59,-37.45l0 -36.34c0,-5.47 -0.5,-10.93 -1.43,-16.37z"/>
   <path class="fil0" d="M19446.73 10676.35l506.56 -1538.74c6.45,-19.6 23.24,-31.52 44.43,-31.56l525.88 -0.89c18.37,-0.03 35.14,8.64 46.89,24.24 11.75,15.59 15.18,33.74 9.58,50.73l-528.62 1605.84c-6.45,19.61 -23.23,31.53 -44.43,31.57l-525.91 0.89c-5.26,0.01 -10.39,-0.7 -15.31,-2.07 -4.6,1.39 -9.57,2.11 -14.82,2.12l-586.17 0.99c-18.47,0.04 -35.33,-8.73 -47.07,-24.47l-475.08 -636.97 -208.61 631.25c-6.47,19.58 -23.24,31.47 -44.42,31.51l-525.88 0.89c-18.37,0.03 -35.14,-8.64 -46.89,-24.24 -11.75,-15.59 -15.18,-33.74 -9.58,-50.73l528.62 -1605.84c6.45,-19.61 23.24,-31.53 44.43,-31.57l525.91 -0.89c18.38,-0.03 35.16,8.65 46.9,24.26 11.75,15.61 15.17,33.77 9.55,50.76l-178.43 539.95 760.74 -606.01c8.57,-6.83 18.09,-10.07 29.6,-10.09l586.17 -1c22.95,-0.04 44.08,14.12 53.91,36.14 9.84,22.01 5.45,45.29 -11.21,59.43l-914.88 776.19 458.14 698.31z"/>
   <path class="fil0" d="M23165.04 10275.19l-525.8 0.89c-62.97,0.11 -123.93,-16.44 -179.54,-53.5 -51.18,-34.08 -94.56,-77.39 -130.1,-127.83 -36.4,-51.68 -63.22,-107.96 -81.07,-167.12 -17.58,-58.29 -27.04,-117.49 -27.04,-176.51 0,-64.12 18.58,-127.65 42.05,-184.2 27.43,-66.09 62.46,-127.92 103.8,-185.13 41.29,-57.11 90.02,-107.82 146.82,-149.41 52.09,-38.14 112.89,-65.16 181.54,-65.27l1396.94 -2.37c20.32,-0.04 38.96,10.77 50.21,29.12 11.26,18.35 11.91,38.99 1.75,55.6 -44.75,73.21 -94.13,143.27 -146.81,210.47 -57.2,72.97 -118.34,142.67 -182.28,209.56 -9.03,9.44 -20.32,14.14 -34.05,14.16l-900.91 1.53c-4.72,3.93 -10.77,15.23 -12.92,19.69 -5.03,10.44 -14.39,31.12 -16.64,45.54 3.86,3.84 7.65,7.75 11.27,11.75 2.84,3.14 10.32,7.25 13.94,9.12 2.56,1.31 5.33,2.79 8.1,4.17l509.85 -0.87c65.82,-0.11 130.89,16.18 187.64,58.36 49.86,37.05 89.79,83.51 119.97,137.53 29.99,53.69 50.95,110.55 63.7,169.09 11.78,54.05 19.09,108.99 19.09,163.07l0 18.17c0,64.54 -14.49,127.2 -35.89,185.41 -23.15,62.98 -53.87,121.91 -91.88,175.85 -37.09,52.65 -81.48,99.02 -133.76,136.5 -49.64,35.59 -106.9,58.83 -171.6,58.94l-1396.96 2.36c-19.28,0.04 -36.93,-9.6 -48.5,-26.49 -11.58,-16.88 -13.81,-36.24 -6.13,-53.2 15.85,-34.99 38.81,-70.62 59.26,-102.74 29.48,-46.3 60.06,-91.81 91.56,-136.62 29.26,-41.62 59.16,-82.81 90.26,-122.97 11.29,-14.56 22.95,-29.37 35.47,-42.85 13.66,-14.71 28.43,-27.87 50.92,-27.91l931.31 -1.58c1.08,0 2.66,-0.03 4.27,-0.14 2.45,-12.19 3.59,-24.73 3.59,-37.45l0 -36.34c0,-5.47 -0.51,-10.93 -1.43,-16.38z"/>
   <path class="fil0" d="M21164.11 9685.07l-65.83 200.57 89.37 -95.83c9.05,-9.7 20.49,-14.54 34.43,-14.57l632.73 -1.07c22.1,-0.04 42.42,12.97 52.81,33.81 10.4,20.83 7.81,43.37 -6.73,58.57l-391.69 409.48c-9.03,9.44 -20.32,14.13 -34.05,14.15l-511.1 0.87 -24.91 75.17 967.72 -1.64c19.28,-0.03 36.91,9.59 48.49,26.46 11.58,16.87 13.82,36.22 6.17,53.18 -4.46,9.87 -10.21,19.78 -15.45,29.21 -7.27,13.1 -14.36,26.33 -21.24,39.67 -7.37,14.28 -15.13,28.32 -23.39,42.03 -4.73,7.86 -10.29,17.64 -16.24,25.12 -20.93,30.64 -44.94,59.68 -69.26,87.47 -27.69,31.63 -55.82,62.88 -84.51,93.58 -24.17,25.86 -48.77,51.45 -74.27,75.99 -17.43,16.78 -39.87,43.15 -66.95,43.19l-1377.77 2.34c-18.37,0.03 -35.14,-8.64 -46.89,-24.24 -11.75,-15.6 -15.18,-33.74 -9.58,-50.73l528.62 -1605.84c6.46,-19.61 23.24,-31.53 44.43,-31.57l1561.3 -2.65c19.28,-0.03 36.92,9.6 48.49,26.47 11.58,16.88 13.82,36.22 6.16,53.18 -18.35,40.63 -43.58,80.36 -67.94,117.12 -31.06,46.87 -63.64,92.62 -97.56,137.28 -31.76,41.81 -65.6,82.34 -102.41,119.62 -25.38,25.72 -63.38,62.17 -103.39,62.24l-809.56 1.37z"/>
   <path class="fil1" d="M17043.14 10285.58l-525.79 0.89c-62.98,0.1 -123.94,-16.45 -179.55,-53.5 -51.17,-34.09 -94.56,-77.4 -130.09,-127.84 -36.41,-51.68 -63.23,-107.96 -81.07,-167.12 -17.59,-58.29 -27.05,-117.49 -27.05,-176.51 0,-64.12 18.58,-127.65 42.05,-184.2 27.43,-66.09 62.46,-127.92 103.81,-185.12 41.28,-57.12 90.02,-107.83 146.81,-149.42 52.09,-38.14 112.89,-65.16 181.55,-65.27l1396.93 -2.37c20.32,-0.04 38.96,10.78 50.22,29.12 11.25,18.35 11.9,38.99 1.75,55.6 -44.76,73.22 -94.14,143.27 -146.82,210.47 -57.2,72.97 -118.34,142.68 -182.28,209.56 -9.03,9.44 -20.32,14.14 -34.05,14.16l-900.9 1.53c-4.73,3.93 -10.77,15.23 -12.93,19.69 -5.03,10.45 -14.39,31.12 -16.63,45.54 3.85,3.84 7.63,7.75 11.26,11.75 2.84,3.14 10.32,7.25 13.94,9.12 2.56,1.32 5.34,2.79 8.11,4.17l509.84 -0.87c65.16,-0.11 128.9,16.74 184.91,58.37 49.84,37.04 89.79,83.52 119.95,137.54 29.86,53.46 51.23,110 64.89,168.19 12.73,54.26 20.65,109.54 20.65,163.96l0 18.16c0,64.54 -14.48,127.2 -35.88,185.41 -23.16,62.98 -53.87,121.91 -91.88,175.85 -37.09,52.65 -81.49,99.02 -133.77,136.51 -49.64,35.59 -106.89,58.82 -171.6,58.93l-1396.95 2.37c-19.29,0.03 -36.93,-9.61 -48.51,-26.5 -11.58,-16.88 -13.81,-36.24 -6.12,-53.19 15.84,-35 38.8,-70.62 59.26,-102.75 29.47,-46.3 60.05,-91.82 91.55,-136.62 29.26,-41.61 59.17,-82.81 90.27,-122.97 11.28,-14.56 22.94,-29.37 35.46,-42.85 13.67,-14.71 28.44,-27.87 50.92,-27.91l931.31 -1.58c1.08,0 2.66,-0.03 4.27,-0.14 2.45,-12.19 3.59,-24.73 3.59,-37.45l0 -36.34c0,-5.46 -0.5,-10.93 -1.43,-16.37z"/>
   <path class="fil0" d="M19493.25 10741.91l506.56 -1538.74c6.45,-19.61 23.24,-31.53 44.43,-31.57l525.89 -0.89c18.36,-0.03 35.13,8.64 46.88,24.24 11.75,15.59 15.18,33.74 9.59,50.73l-528.62 1605.85c-6.46,19.6 -23.24,31.52 -44.44,31.56l-525.91 0.89c-5.26,0.01 -10.39,-0.7 -15.31,-2.07 -4.6,1.39 -9.57,2.11 -14.82,2.12l-586.17 1c-18.47,0.03 -35.33,-8.74 -47.07,-24.48l-475.07 -636.97 -208.62 631.25c-6.47,19.58 -23.24,31.48 -44.42,31.51l-525.88 0.89c-18.37,0.03 -35.14,-8.63 -46.89,-24.23 -11.75,-15.6 -15.18,-33.75 -9.58,-50.74l528.62 -1605.84c6.45,-19.61 23.24,-31.53 44.43,-31.57l525.91 -0.89c18.38,-0.03 35.16,8.65 46.9,24.26 11.75,15.61 15.17,33.77 9.55,50.76l-178.43 539.96 760.74 -606.02c8.58,-6.83 18.09,-10.07 29.6,-10.09l586.17 -1c22.96,-0.03 44.08,14.12 53.91,36.14 9.84,22.01 5.45,45.3 -11.21,59.43l-914.88 776.19 458.14 698.32z"/>
   <g>
    <path class="fil2" d="M17050.98 10260.53l0 -18.17c0,-16.14 -2.74,-32.8 -8.21,-49.95 -5.48,-17.15 -15.51,-25.72 -30.14,-25.69l-547.82 0.93c-54.79,0.09 -104.09,-14.47 -147.9,-43.66 -43.82,-29.19 -81.73,-66.49 -113.69,-111.84 -31.96,-45.37 -56.14,-95.29 -72.58,-149.77 -16.42,-54.48 -24.64,-107.98 -24.64,-160.46 0,-48.45 12.76,-103.5 38.33,-165.11 25.57,-61.61 58.43,-120.21 98.6,-175.81 40.19,-55.58 85.84,-102.08 136.98,-139.51 51.11,-37.45 102.25,-56.2 153.39,-56.29l1396.94 -2.37c-42,68.7 -89.92,137.43 -143.82,206.15 -53.85,68.74 -113.66,137.47 -179.4,206.23l-903.92 1.54c-20.07,0.03 -37.43,15.2 -52.03,45.51 -14.62,30.31 -21.92,54.55 -21.92,72.71l0 15.14c0,2.02 3.65,6.55 10.97,13.6 7.3,7.07 12.78,12.6 16.43,16.64 7.3,8.07 17.79,15.61 31.5,22.65 13.68,7.06 21.44,10.56 23.29,10.56l520.41 -0.88c58.44,-0.1 108.67,15.48 150.66,46.69 41.99,31.21 76.25,70.52 102.71,117.92 26.48,47.4 46.12,98.33 58.9,152.82 12.79,54.48 19.18,104.96 19.18,151.39l0 18.16c0,52.48 -10.97,108.53 -32.87,168.14 -21.92,59.58 -50.68,114.64 -86.29,165.16 -35.61,50.55 -76.71,92.51 -123.24,125.89 -46.58,33.38 -94.5,50.13 -143.82,50.21l-1396.95 2.37c9.14,-20.2 27.85,-52.54 56.15,-97.01 28.31,-44.45 58.42,-89.43 90.4,-134.89 31.96,-45.48 61.63,-85.92 89.03,-121.29 27.39,-35.37 43.82,-53.06 49.29,-53.07l931.31 -1.58c27.37,-0.04 43.36,-9.17 47.93,-27.34 4.56,-18.17 6.84,-37.36 6.84,-57.54l0 -18.18z"/>
    <polygon class="fil2" points="17557.73,10768.41 18083.61,10767.52 18321.93,10046.4 18858.79,10766.21 19444.96,10765.21 18919.05,9963.62 19866.79,9159.55 19280.62,9160.54 18373.96,9882.79 18612.26,9161.68 18086.35,9162.57 "/>
    <polygon class="fil2" points="19475.09,10765.16 20001,10764.27 20529.63,9158.43 20003.74,9159.32 "/>
    <path class="fil2" d="M20688.52 9158.16l-528.62 1605.84 1377.77 -2.34c1.82,0 13.21,-10.12 34.21,-30.34 21.01,-20.22 45.21,-45 72.61,-74.31 27.39,-29.31 55.22,-60.16 83.53,-92.49 28.31,-32.36 50.68,-60.66 67.11,-84.91 1.82,-2.02 6.4,-9.11 13.68,-21.22 7.32,-12.14 14.62,-25.27 21.92,-39.41 7.3,-14.15 14.62,-27.79 21.92,-40.92 7.3,-13.13 11.89,-21.72 13.71,-25.77l-1049.08 1.78 60.24 -181.78 545.09 -0.93 391.7 -409.47 -632.73 1.07 -260.22 279.04 156.12 -475.69 843.65 -1.43c14.62,-0.03 37.91,-16.23 69.84,-48.59 31.96,-32.36 64.83,-70.76 98.61,-115.24 33.78,-44.46 65.74,-89.44 95.87,-134.9 30.13,-45.48 51.6,-82.36 64.37,-110.64l-1561.3 2.65z"/>
    <path class="fil2" d="M23172.88 10250.14l0 -18.16c0,-16.14 -2.74,-32.8 -8.22,-49.95 -5.47,-17.15 -15.51,-25.72 -30.13,-25.69l-547.83 0.93c-54.79,0.09 -104.08,-14.47 -147.9,-43.66 -43.82,-29.19 -81.73,-66.49 -113.68,-111.84 -31.96,-45.37 -56.14,-95.3 -72.58,-149.78 -16.43,-54.47 -24.64,-107.97 -24.64,-160.46 0,-48.44 12.75,-103.49 38.32,-165.1 25.57,-61.61 58.44,-120.22 98.61,-175.81 40.19,-55.58 85.83,-102.08 136.97,-139.51 51.12,-37.45 102.26,-56.2 153.4,-56.29l1396.93 -2.37c-41.99,68.7 -89.91,137.43 -143.81,206.15 -53.86,68.74 -113.67,137.47 -179.4,206.23l-903.92 1.54c-20.07,0.03 -37.43,15.2 -52.03,45.51 -14.62,30.31 -21.92,54.54 -21.92,72.71l0 15.14c0,2.02 3.65,6.55 10.97,13.6 7.3,7.07 12.78,12.6 16.42,16.64 7.3,8.07 17.8,15.61 31.51,22.64 13.68,7.06 21.44,10.57 23.28,10.57l520.42 -0.89c60.26,-0.1 111.4,15.48 153.39,46.69 42.02,31.21 76.23,70.52 102.74,117.92 26.46,47.4 45.64,98.34 57.5,152.82 11.89,54.49 17.82,104.97 17.82,151.39l0 18.17c0,52.48 -10.97,108.53 -32.87,168.14 -21.92,59.58 -50.68,114.63 -86.29,165.16 -35.61,50.55 -76.71,92.5 -123.24,125.89 -46.58,33.38 -94.51,50.12 -143.82,50.21l-1396.96 2.37c9.15,-20.2 27.85,-52.54 56.16,-97.01 28.31,-44.45 58.42,-89.43 90.4,-134.89 31.95,-45.48 61.63,-85.92 89.02,-121.29 27.4,-35.37 43.82,-53.06 49.3,-53.07l931.31 -1.58c27.37,-0.04 43.36,-9.17 47.92,-27.34 4.56,-18.17 6.85,-37.36 6.85,-57.54l0 -18.19z"/>
    <path class="fil3" d="M16049.09 10453.99c-30.09,38.85 -59.14,78.85 -87.6,119.35 -30.56,43.48 -60.31,87.76 -89.05,132.91l-7.56 11.83 1312.19 -2.22c43.4,-0.08 83.36,-15.94 120.27,-42.42 42.71,-30.62 80.05,-69.09 111.96,-114.37 32.61,-46.29 59.31,-97.21 79.58,-152.34 16.97,-46.15 29.16,-96.44 29.16,-147.02l0 -18.16c0,-8.47 -0.24,-16.94 -0.7,-25.39 -139.75,13.4 -280.07,25.69 -421,36.69l0 25.74c0,24.61 -2.78,49.01 -8.71,72.62 -12.23,48.73 -51.71,65.48 -91.35,65.54l-918.26 1.56c-9.84,10.34 -21.94,26.63 -28.93,35.68z"/>
    <path class="fil3" d="M17797.52 10187.7l-173.62 527.4 428.89 -0.73 191 -578c-148.14,18.17 -296.89,35.35 -446.27,51.33z"/>
    <path class="fil3" d="M18431.84 10112.74l447.67 600.23 473.67 -0.8 -436.43 -665.21c-160.98,22.89 -322.59,44.89 -484.91,65.78z"/>
    <path class="fil3" d="M19804.52 9912.5l-263.14 799.35 428.86 -0.73 286.98 -871.8c-150.42,24.63 -301.3,49.09 -452.7,73.18z"/>
    <path class="fil3" d="M20527.69 9794.85l-301.49 915.83 1298.3 -2.2c6.56,-5.9 13.3,-12.73 19.05,-18.28 24.18,-23.31 47.69,-47.76 70.81,-72.5 27.91,-29.9 55.39,-60.36 82.46,-91.32 21.94,-25.09 44.17,-51.72 63.24,-79.9l2.02 -2.98 1.02 -1.11c3.18,-4.55 6.28,-9.99 9.13,-14.73 4.36,-7.22 8.56,-14.59 12.62,-22.05l-1033.52 1.76 95.54 -288.28 0.96 0 130.86 -398.74c-149.92,24.72 -300.23,49.63 -451,74.5z"/>
    <polygon class="fil3" points="21199.42,9816.07 20916.93,10118.97 21405.73,10118.14 21695.5,9815.23 "/>
    <path class="fil3" d="M22295.59 9834.09c14.8,49.02 36.61,93.61 64.83,133.67 28.48,40.44 62.28,73.62 101.15,99.52 38.76,25.83 81.08,36.84 125.55,36.76l547.85 -0.93c34.1,-0.06 60.63,22.88 72.51,60.12 7.04,22.02 11.13,45.08 11.13,68.65l0 36.33c0,24.61 -2.78,49.01 -8.72,72.62 -12.23,48.72 -51.7,65.47 -91.35,65.54l-918.25 1.56c-9.84,10.33 -21.94,26.63 -28.94,35.68 -30.09,38.85 -59.15,78.85 -87.59,119.35 -30.57,43.48 -60.31,87.76 -89.07,132.91l-7.54 11.83 1312.18 -2.23c43.41,-0.07 83.34,-15.93 120.27,-42.41 42.71,-30.62 80.04,-69.09 111.95,-114.38 32.63,-46.28 59.33,-97.21 79.6,-152.33 16.96,-46.15 29.15,-96.44 29.15,-147.02l0 -18.16c0,-46.47 -6.62,-93.32 -16.4,-138.21 -10.67,-48.95 -27.94,-94.65 -51.51,-136.86 -23.29,-41.7 -53.25,-75.53 -89.11,-102.2 -38.67,-28.74 -83.95,-38.52 -129.16,-38.45l-520.47 0.89c-13.58,0.02 -29.11,-8.67 -41.48,-15.03 -15.9,-8.16 -31.6,-18.57 -44.31,-32.6 -4.5,-4.97 -9.43,-9.7 -14.19,-14.31 -14.84,-14.32 -27.46,-29.96 -27.46,-54.66l0 -15.14c0,-34.26 13.67,-69.65 27.81,-98.96 19.62,-40.73 49.73,-72.47 91.41,-72.54l886.69 -1.51c56.81,-60.12 111.62,-123 163.42,-189.08 0.15,-0.2 0.3,-0.37 0.45,-0.57 -514.74,45.13 -1030.72,110.29 -1549.92,185.96 -6.62,13.66 -12.88,27.55 -18.74,41.73 -17.71,42.63 -33.79,93.71 -33.79,141.76 0,48.88 8.19,96.75 22.05,142.7z"/>
   </g>
  </g>
 </g>
</svg>
